<?xml version="1.0" encoding="UTF-8" standalone="no"?>
<!DOCTYPE svg PUBLIC "-//W3C//DTD SVG 1.1//EN" "http://www.w3.org/Graphics/SVG/1.1/DTD/svg11.dtd">
<svg width="100%" height="100%" viewBox="0 0 36 71" version="1.1" xmlns="http://www.w3.org/2000/svg" xmlns:xlink="http://www.w3.org/1999/xlink" xml:space="preserve" xmlns:serif="http://www.serif.com/" style="fill-rule:evenodd;clip-rule:evenodd;stroke-linejoin:round;stroke-miterlimit:2;">
    <g id="Layer_2">
        <g id="Layer_1-2">
            <path d="M32.43,44.92C36.75,35.72 35.84,20.79 29.76,11.18C26.974,6.784 23.26,3.05 18.88,0.24C18.394,-0.064 17.776,-0.064 17.29,0.24L17.12,0.33C17,0.4 16.88,0.46 16.76,0.54C2.059,9.862 -3.878,28.578 2.76,44.67C1.154,45.395 0.117,47.001 0.117,48.762C0.117,50.556 1.192,52.184 2.84,52.89L2.84,69C2.84,69.823 3.517,70.5 4.34,70.5C5.163,70.5 5.84,69.823 5.84,69L5.84,64L28.92,64L28.92,69C28.92,69.823 29.597,70.5 30.42,70.5C31.243,70.5 31.92,69.823 31.92,69L31.92,52.84C33.535,52.122 34.58,50.513 34.58,48.746C34.58,47.185 33.764,45.732 32.43,44.92ZM3.69,24.36L16.15,43L16.28,43.14L16.28,44.25L5.79,44.25C3.03,38.003 2.295,31.046 3.69,24.36ZM7.91,13.62L16.17,26.62C16.224,26.698 16.285,26.771 16.35,26.84L16.3,37.84L4.71,20.5C5.51,18.092 6.584,15.783 7.91,13.62ZM29.43,44.24L19.27,44.24L19.27,42.85L31.43,24.34C32.7,31.31 32.25,38.92 29.43,44.24ZM30.48,20.31L19.31,37.31L19.31,27.31C19.31,27.26 19.38,27.23 19.41,27.18L27.72,13.66C28.897,15.761 29.824,17.993 30.48,20.31ZM26,10.94L19.38,21.63L19.46,4.31C21.944,6.199 24.146,8.431 26,10.94ZM16.46,4.36L16.38,21.36L9.76,10.93C11.668,8.431 13.924,6.218 16.46,4.36ZM28.92,61L5.79,61L5.79,53.24L28.92,53.24L28.92,61Z" style="fill:rgb(57,125,2);fill-rule:nonzero;"/>
        </g>
    </g>
</svg>
