<?xml version="1.0" encoding="UTF-8" standalone="no"?>
<!DOCTYPE svg PUBLIC "-//W3C//DTD SVG 1.1//EN" "http://www.w3.org/Graphics/SVG/1.1/DTD/svg11.dtd">
<svg width="100%" height="100%" viewBox="0 0 11417 6875" version="1.1" xmlns="http://www.w3.org/2000/svg" xmlns:xlink="http://www.w3.org/1999/xlink" xml:space="preserve" xmlns:serif="http://www.serif.com/" style="fill-rule:evenodd;clip-rule:evenodd;stroke-linejoin:round;stroke-miterlimit:2;">
    <g id="logo" transform="matrix(4.16667,0,0,4.16667,0,0)">
        <g transform="matrix(2.59171,0,0,2.59171,-684.38,-752.899)">
            <g>
                <path d="M477.95,630.99C477.95,631.575 478.008,632.113 478.078,632.184L478.145,632.249L479.584,633.637C480.692,633.95 481.598,632.772 481.598,631.02C481.598,629.269 481.034,628.047 480.344,628.305C479.654,628.564 477.95,630.405 477.95,630.99M491.598,672C491.598,675.3 488.898,678 485.598,678L463.95,678C460.65,678 457.95,675.3 457.95,672L457.95,611.218C457.95,607.918 460.65,605.218 463.95,605.218L475.696,605.218C478.996,605.218 484.393,605.352 487.689,605.516C487.689,605.516 490.142,605.638 493.088,606.503C496.868,607.612 499.929,609.436 502.184,611.923C504.357,614.32 505.833,617.191 506.573,620.459C507.106,622.816 507.147,623.99 507.147,623.99C507.261,627.288 507.355,631.02 507.355,632.285C507.355,633.549 507.163,637.277 506.929,640.568C506.929,640.568 506.747,643.13 505.443,646.041C503.741,649.836 500.679,652.806 496.588,654.635L495.056,655.32C493.155,655.795 491.598,658.885 491.598,662.184L491.598,672Z" style="fill:url(#_Linear1);fill-rule:nonzero;stroke:black;stroke-width:0.09px;"/>
                <path d="M542.66,672C542.66,675.3 539.96,678 536.66,678L497.278,678C493.978,678 491.278,675.3 491.278,672L491.278,611.217C491.278,607.917 493.978,605.217 497.278,605.217L536.66,605.217C539.96,605.217 542.66,607.917 542.66,611.217L542.66,672Z" style="fill:url(#_Linear2);fill-rule:nonzero;stroke:black;stroke-width:0.09px;"/>
                <path d="M559.512,678.55C556.226,678.858 550.849,678.865 547.562,678.567C547.562,678.567 545.594,678.388 542.151,676.966C538.214,675.341 534.973,672.828 532.52,669.499C530.126,666.254 528.675,662.627 528.209,658.72C527.896,656.093 527.838,652.124 527.838,652.124C527.789,648.824 527.749,644.092 527.749,641.609C527.749,639.126 527.788,634.394 527.835,631.094C527.835,631.094 527.888,627.345 528.185,624.709C528.625,620.798 530.019,617.18 532.326,613.959C534.687,610.663 537.852,608.127 541.734,606.421C545.226,604.887 549.197,604.109 553.538,604.109C557.651,604.109 561.482,604.83 564.925,606.252C568.862,607.878 572.102,610.39 574.556,613.718C576.95,616.968 578.401,620.595 578.866,624.498C579.18,627.126 579.238,631.094 579.238,631.094C579.287,634.394 579.326,639.126 579.326,641.609C579.326,644.092 579.287,648.824 579.239,652.124C579.239,652.124 579.184,655.902 578.891,658.506C578.45,662.42 577.057,666.036 574.75,669.258C572.387,672.555 569.223,675.091 565.343,676.797C561.847,678.332 559.512,678.55 559.512,678.55" style="fill:url(#_Linear3);fill-rule:nonzero;stroke:black;stroke-width:0.09px;"/>
                <path d="M603.803,672C603.803,675.3 601.103,678 597.803,678L576.155,678C572.855,678 570.155,675.3 570.155,672L570.155,641.781C570.155,638.481 568.338,635.781 566.118,635.781C563.899,635.781 562.082,633.081 562.082,629.781L562.082,611.217C562.082,607.917 564.782,605.217 568.082,605.217L605.908,605.217C609.208,605.217 611.908,607.917 611.908,611.217L611.908,629.781C611.908,633.081 610.085,635.781 607.856,635.781C605.627,635.781 603.803,638.481 603.803,641.781L603.803,672Z" style="fill:url(#_Linear4);fill-rule:nonzero;stroke:black;stroke-width:0.09px;"/>
                <path d="M626.395,678.55C623.109,678.857 617.732,678.864 614.444,678.566C614.444,678.566 612.478,678.387 609.034,676.966C605.097,675.341 601.856,672.828 599.401,669.499C597.01,666.254 595.559,662.627 595.092,658.721C594.778,656.094 594.72,652.124 594.72,652.124C594.672,648.824 594.633,644.092 594.633,641.609C594.633,639.125 594.67,634.393 594.718,631.093C594.718,631.093 594.771,627.344 595.068,624.708C595.507,620.798 596.901,617.181 599.209,613.959C601.569,610.662 604.735,608.126 608.617,606.421C612.109,604.886 616.079,604.109 620.42,604.109C624.534,604.109 628.365,604.829 631.808,606.251C635.746,607.878 638.985,610.39 641.438,613.718C643.833,616.967 645.284,620.594 645.75,624.498C646.063,627.126 646.122,631.093 646.122,631.093C646.169,634.393 646.209,639.125 646.209,641.609C646.209,644.092 646.17,648.824 646.122,652.124C646.122,652.124 646.067,655.9 645.774,658.506C645.333,662.42 643.939,666.037 641.632,669.258C639.27,672.554 636.106,675.091 632.226,676.797C628.73,678.331 626.395,678.55 626.395,678.55" style="fill:url(#_Linear5);fill-rule:nonzero;stroke:black;stroke-width:0.09px;"/>
                <path d="M656.6,678.923C655.305,679.025 651.566,678.768 648.293,678.353C648.293,678.353 646.422,678.115 642.921,676.156C639.454,674.216 636.715,671.673 634.78,668.596C632.995,665.756 631.857,662.692 631.4,659.487C631.07,657.184 631.042,655.904 631.042,655.904C630.97,652.605 630.91,647.206 630.91,643.906L630.91,640.224C630.91,636.924 631.001,631.526 631.112,628.227C631.112,628.227 631.253,624.043 631.99,620.933C633.084,616.309 635.917,612.272 640.409,608.934C644.723,605.732 650.071,604.109 656.309,604.109C662.194,604.109 667.329,605.455 671.57,608.11C676.162,610.988 679.283,614.701 680.85,619.15C681.838,621.958 682.002,623.696 682.002,623.696C682.313,626.981 682.578,629.669 682.592,629.669C682.605,629.669 682.617,632.369 682.617,635.669L682.617,672C682.617,675.299 679.916,678 676.617,678L667.074,678C663.774,678 657.895,678.82 656.6,678.923" style="fill:url(#_Linear6);fill-rule:nonzero;stroke:black;stroke-width:0.09px;"/>
                <path d="M688.65,627.425C688.238,627.798 687.901,628.896 687.901,629.866C687.901,630.837 688.722,631.553 689.725,631.459C690.729,631.364 691.549,630.101 691.549,628.653C691.549,627.205 690.933,626.178 690.18,626.371L689.105,627.112L688.65,627.425ZM718.376,672C718.376,675.3 715.675,678 712.376,678L673.901,678C670.601,678 667.901,675.3 667.901,672L667.901,611.217C667.901,607.917 670.601,605.217 673.901,605.217L681.562,605.217C684.862,605.217 690.261,605.284 693.56,605.367C693.56,605.367 699.686,605.52 702.784,606.199C707.517,607.237 711.537,609.956 714.412,614.063C717.08,617.876 718.376,622.967 718.376,629.627C718.376,634.334 718.197,634.992 718.197,634.992C717.331,638.176 717.018,641.719 717.502,642.865L717.759,643.938C718.14,645.525 718.211,648.081 718.211,648.081C718.301,651.38 718.376,656.779 718.376,660.079L718.376,672Z" style="fill:url(#_Linear7);fill-rule:nonzero;stroke:black;stroke-width:0.09px;"/>
                <path d="M755.768,672.065C756.251,675.33 753.946,678.001 750.646,678.001L705.158,678.001C701.858,678.001 699.511,675.324 699.942,672.052L707.974,611.166C708.405,607.895 711.439,605.218 714.716,605.218L740.997,605.218C743.685,605.218 746.278,607.889 746.761,611.153L755.768,672.065Z" style="fill:url(#_Linear8);fill-rule:nonzero;stroke:black;stroke-width:0.09px;"/>
                <path d="M757.377,630.99C757.377,631.575 757.435,632.113 757.507,632.185L757.574,632.251L759.011,633.637C760.118,633.95 761.026,632.772 761.026,631.02C761.026,629.269 760.46,628.047 759.771,628.305C759.08,628.564 757.377,630.405 757.377,630.99M771.026,672C771.026,675.3 768.325,678 765.026,678L743.377,678C740.077,678 737.377,675.3 737.377,672L737.377,611.218C737.377,607.918 740.077,605.218 743.377,605.218L755.122,605.218C758.423,605.218 763.819,605.352 767.116,605.516C767.116,605.516 769.569,605.638 772.516,606.503C776.295,607.612 779.356,609.436 781.611,611.923C783.785,614.319 785.261,617.192 786.001,620.461C786.532,622.815 786.574,623.99 786.574,623.99C786.689,627.288 786.781,631.02 786.781,632.285C786.781,633.549 786.589,637.277 786.356,640.568C786.356,640.568 786.174,643.132 784.868,646.042C783.169,649.835 780.107,652.806 776.015,654.635L774.483,655.32C772.582,655.795 771.026,658.885 771.026,662.184L771.026,672Z" style="fill:url(#_Linear9);fill-rule:nonzero;stroke:black;stroke-width:0.09px;"/>
                <path d="M822.086,672C822.086,675.3 819.386,678 816.086,678L776.704,678C773.404,678 770.704,675.3 770.704,672L770.704,611.217C770.704,607.917 773.404,605.217 776.704,605.217L816.086,605.217C819.386,605.217 822.086,607.917 822.086,611.217L822.086,672Z" style="fill:url(#_Linear10);fill-rule:nonzero;stroke:black;stroke-width:0.09px;"/>
                <path d="M840.726,678L818.643,678C816.117,678 814.05,675.3 814.05,672L814.05,656.292C814.05,652.993 813.31,647.696 812.406,644.522L802.851,610.988C801.946,607.814 803.907,605.217 807.206,605.217L854.029,605.217C857.329,605.217 859.264,607.807 858.329,610.971L848.394,644.588C847.458,647.753 846.693,653.042 846.693,656.342L846.693,672C846.693,675.3 844.008,678 840.726,678Z" style="fill:url(#_Linear11);fill-rule:nonzero;stroke:black;stroke-width:0.09px;"/>
                <path d="M872.951,677.41C871.29,677.548 867.341,676.895 864.177,675.959C864.177,675.959 854.969,673.235 851.971,669.523C848.13,664.765 846.184,659.068 846.184,652.589C846.184,647.083 847.555,642.446 850.26,638.805L850.368,638.661C850.489,638.503 849.779,635.799 848.79,632.65C848.79,632.65 848.588,632.009 848.588,628.411C848.588,621.341 851.202,615.228 856.146,610.736C860.885,606.429 867.116,604.245 874.666,604.245C883.633,604.245 889.216,607.877 892.32,610.924C896.824,615.345 899.203,621.17 899.203,627.769L899.203,628.735C899.115,629.778 901.082,629.314 903.574,627.703C906.067,626.091 908.106,627.473 908.106,630.773L908.106,652.914C908.106,656.214 907.847,659.081 907.53,659.285C907.213,659.489 908.2,662.051 909.722,664.979L912.88,671.053C914.402,673.98 912.948,676.376 909.648,676.376L885.146,676.376C881.846,676.376 879.12,676.328 879.088,676.269C879.057,676.21 874.612,677.272 872.951,677.41" style="fill:url(#_Linear12);fill-rule:nonzero;stroke:black;stroke-width:0.09px;"/>
                <path d="M933.855,677.793C930.557,677.907 925.158,678 921.858,678L906.644,678C903.344,678 900.644,675.3 900.644,672L900.644,611.217C900.644,607.918 903.344,605.217 906.644,605.217L914.856,605.217C918.156,605.217 923.555,605.299 926.853,605.399C926.853,605.399 933.489,605.6 936.762,606.457C941.054,607.581 944.522,609.635 947.072,612.564C949.486,615.339 951.024,618.524 951.646,622.031C951.928,623.624 952.062,627.836 952.062,627.836C952.167,631.135 952.253,636.534 952.253,639.834L952.253,646.319C952.253,649.619 952.166,655.018 952.06,658.316C952.06,658.316 951.945,661.894 951.225,664.494C950.233,668.066 948.289,671.115 945.6,673.314C943.286,675.209 940.506,676.527 937.344,677.227C934.956,677.755 933.855,677.793 933.855,677.793" style="fill:url(#_Linear13);fill-rule:nonzero;stroke:black;stroke-width:0.09px;"/>
                <path d="M981.009,672C981.009,675.3 978.309,678 975.009,678L943.342,678C940.043,678 937.342,675.3 937.342,672L937.342,611.217C937.342,607.917 940.043,605.217 943.342,605.217L974.101,605.217C977.401,605.217 980.101,607.917 980.101,611.217L980.101,629.781C980.101,633.081 979.969,635.783 979.809,635.785C979.649,635.788 979.518,638.41 979.518,641.614C979.518,644.817 979.853,647.437 980.263,647.437C980.674,647.437 981.009,650.138 981.009,653.437L981.009,672Z" style="fill:url(#_Linear14);fill-rule:nonzero;stroke:black;stroke-width:0.09px;"/>
                <path d="M995.814,678.5C992.531,678.835 987.162,678.814 983.881,678.454C983.881,678.454 979.795,678.005 975.751,675.826C969.807,672.628 967.192,668.278 966.045,665.192C964.816,661.889 964.602,658.535 964.602,658.535C964.391,655.241 964.219,649.847 964.219,646.547L964.219,645.091C964.219,641.792 964.488,639.091 964.816,639.091C965.145,639.091 964.736,636.478 963.908,633.283C963.908,633.283 963.797,632.855 963.797,628.943C963.797,623.054 964.68,618.706 966.573,615.259C968.648,611.481 971.866,608.569 976.137,606.605C979.733,604.949 983.932,604.109 988.613,604.109C993.598,604.109 998.056,605 1001.86,606.756C1006.57,608.928 1009.88,612.033 1011.71,615.987C1013.17,619.141 1013.44,623.12 1013.44,623.12C1013.67,626.412 1013.85,631.806 1013.85,635.106L1013.85,635.192C1013.85,638.492 1013.61,641.192 1013.32,641.192C1013.03,641.192 1013.51,643.795 1014.38,646.977C1014.38,646.977 1014.99,649.153 1014.99,654.503C1014.99,659.938 1014.24,663.981 1012.65,667.228C1010.77,671.057 1007.5,674.113 1002.94,676.31C999.077,678.167 995.814,678.5 995.814,678.5" style="fill:url(#_Linear15);fill-rule:nonzero;stroke:black;stroke-width:0.09px;"/>
                <path d="M1032.91,672C1032.91,675.3 1030.21,678 1026.91,678L1005.26,678C1001.97,678 999.265,675.3 999.265,672L999.265,611.217C999.265,607.917 1001.97,605.217 1005.26,605.217L1026.91,605.217C1030.21,605.217 1032.91,607.917 1032.91,611.217L1032.91,672Z" style="fill:url(#_Linear16);fill-rule:nonzero;stroke:black;stroke-width:0.09px;"/>
                <path d="M1043.69,678.923C1042.4,679.025 1038.66,678.768 1035.39,678.353C1035.39,678.353 1033.52,678.115 1030.01,676.156C1026.55,674.215 1023.81,671.673 1021.87,668.596C1020.09,665.756 1018.95,662.694 1018.49,659.489C1018.16,657.181 1018.13,655.904 1018.13,655.904C1018.06,652.605 1018,647.206 1018,643.906L1018,640.224C1018,636.924 1018.09,631.526 1018.21,628.227C1018.21,628.227 1018.35,624.043 1019.08,620.933C1020.18,616.309 1023.01,612.272 1027.5,608.934C1031.82,605.732 1037.17,604.109 1043.4,604.109C1049.29,604.109 1054.42,605.455 1058.66,608.11C1063.26,610.987 1066.38,614.7 1067.94,619.148C1068.93,621.956 1069.1,623.696 1069.1,623.696C1069.41,626.981 1069.67,629.669 1069.69,629.669C1069.7,629.669 1069.71,632.369 1069.71,635.669L1069.71,672C1069.71,675.299 1067.01,678 1063.71,678L1054.17,678C1050.87,678 1044.99,678.82 1043.69,678.923" style="fill:url(#_Linear17);fill-rule:nonzero;stroke:black;stroke-width:0.09px;"/>
                <path d="M1099.76,678L1061,678C1057.69,678 1055,675.3 1055,672L1055,611.217C1055,607.917 1057.56,605.217 1060.7,605.217L1099.47,605.217C1102.77,605.217 1105.47,607.917 1105.47,611.217L1105.47,672C1105.47,675.3 1102.9,678 1099.76,678Z" style="fill:url(#_Linear18);fill-rule:nonzero;stroke:black;stroke-width:0.09px;"/>
            </g>
            <g>
                <path d="M481.598,628.248L481.598,635.68C481.598,638.98 481.924,641.695 482.322,641.713L482.603,641.713C483.856,641.713 484.727,641.403 485.213,640.784C485.7,640.165 485.943,638.876 485.943,636.92C485.943,634.536 485.816,631.245 485.661,629.607L485.1,629.063C484.537,628.52 483.37,628.248 481.598,628.248M467.95,625.217C467.95,621.917 470.65,619.217 473.95,619.217L475.696,619.217C478.995,619.217 484.393,619.338 487.69,619.485C487.69,619.485 488.271,619.511 490.271,620.098C492.27,620.684 493.772,621.532 494.777,622.64C495.782,623.749 496.463,625.091 496.82,626.667C497.176,628.243 497.354,630.683 497.354,633.986C497.354,636.514 497.199,641.205 497.008,644.408L496.317,645.951C495.624,647.495 494.356,648.679 492.507,649.505C490.66,650.331 488.244,650.744 485.262,650.744C483.246,650.744 481.598,653.444 481.598,656.744L481.598,666C481.598,669.3 478.898,672 475.598,672L473.95,672C470.65,672 467.95,669.3 467.95,666L467.95,625.217Z" style="fill:url(#_Linear19);fill-rule:nonzero;"/>
                <path d="M526.66,619.217C529.96,619.217 532.66,621.917 532.66,625.217L532.66,666C532.66,669.3 529.96,672 526.66,672L525.012,672C521.712,672 519.012,669.3 519.012,666L519.012,655.83C519.012,652.53 518.093,649.83 516.969,649.83C515.846,649.83 514.927,652.53 514.927,655.83L514.927,666C514.927,669.3 512.226,672 508.927,672L507.278,672C503.978,672 501.278,669.3 501.278,666L501.278,625.217C501.278,621.917 503.978,619.217 507.278,619.217L508.927,619.217C512.226,619.217 514.927,621.917 514.927,625.217L514.927,632.094C514.927,635.394 515.846,638.094 516.969,638.094C518.093,638.094 519.012,635.394 519.012,632.094L519.012,625.217C519.012,621.917 521.712,619.217 525.012,619.217L526.66,619.217Z" style="fill:url(#_Linear20);fill-rule:nonzero;"/>
                <path d="M555.678,638.78C555.678,635.48 555.617,630.968 555.542,628.754L555.273,628.069C555.001,627.384 554.446,627.042 553.603,627.042C552.89,627.042 552.344,627.319 551.966,627.874C551.587,628.427 551.398,630.063 551.398,632.78L551.398,651.427C551.398,654.727 551.454,659.657 551.522,662.383L551.771,663.1C552.019,663.818 552.598,664.176 553.505,664.176C554.434,664.176 555.03,663.764 555.288,662.937C555.548,662.111 555.678,660.145 555.678,657.036L555.678,638.78ZM569.326,644.125C569.326,647.425 569.289,652.824 569.243,656.124C569.243,656.124 569.201,659.183 568.953,661.389C568.705,663.594 567.927,665.611 566.619,667.436C565.311,669.262 563.544,670.664 561.319,671.642C559.092,672.62 556.499,673.109 553.538,673.109C550.728,673.109 548.204,672.647 545.968,671.723C543.731,670.8 541.931,669.414 540.57,667.567C539.208,665.72 538.398,663.709 538.138,661.535C537.879,659.362 537.749,655.558 537.749,650.125L537.749,647.093C537.749,643.794 537.786,638.394 537.831,635.094C537.831,635.094 537.873,632.036 538.122,629.83C538.37,627.624 539.149,625.608 540.456,623.782C541.764,621.956 543.531,620.554 545.757,619.576C547.983,618.598 550.576,618.109 553.538,618.109C556.347,618.109 558.871,618.571 561.108,619.495C563.345,620.419 565.144,621.804 566.506,623.652C567.867,625.499 568.678,627.51 568.937,629.683C569.197,631.856 569.326,635.66 569.326,641.093L569.326,644.125Z" style="fill:url(#_Linear21);fill-rule:nonzero;"/>
                <path d="M595.909,619.217C599.209,619.217 601.909,621.594 601.909,624.499C601.909,627.404 600.085,629.78 597.856,629.78C595.627,629.78 593.804,632.481 593.804,635.78L593.804,666C593.804,669.3 591.103,672 587.804,672L586.155,672C582.855,672 580.155,669.3 580.155,666L580.155,635.78C580.155,632.481 578.339,629.78 576.119,629.78C573.899,629.78 572.083,627.404 572.083,624.499C572.083,621.594 574.783,619.217 578.083,619.217L595.909,619.217Z" style="fill:url(#_Linear22);fill-rule:nonzero;"/>
                <path d="M622.56,638.78C622.56,635.48 622.499,630.968 622.425,628.754L622.155,628.069C621.884,627.384 621.328,627.042 620.485,627.042C619.772,627.042 619.226,627.319 618.848,627.874C618.469,628.427 618.281,630.063 618.281,632.78L618.281,651.427C618.281,654.727 618.336,659.657 618.405,662.383L618.653,663.1C618.902,663.818 619.48,664.176 620.388,664.176C621.317,664.176 621.912,663.764 622.171,662.937C622.431,662.111 622.56,660.145 622.56,657.036L622.56,638.78ZM636.208,644.125C636.208,647.425 636.171,652.824 636.126,656.124C636.126,656.124 636.084,659.183 635.836,661.389C635.587,663.594 634.809,665.611 633.501,667.436C632.194,669.262 630.427,670.664 628.201,671.642C625.975,672.62 623.381,673.109 620.42,673.109C617.611,673.109 615.087,672.647 612.85,671.723C610.614,670.8 608.814,669.414 607.453,667.567C606.09,665.72 605.281,663.709 605.021,661.535C604.761,659.362 604.632,655.558 604.632,650.125L604.632,647.093C604.632,643.794 604.669,638.394 604.714,635.094C604.714,635.094 604.756,632.036 605.004,629.83C605.253,627.624 606.031,625.608 607.338,623.782C608.646,621.956 610.414,620.554 612.639,619.576C614.866,618.598 617.459,618.109 620.42,618.109C623.229,618.109 625.753,618.571 627.991,619.495C630.227,620.419 632.027,621.804 633.388,623.652C634.75,625.499 635.56,627.51 635.82,629.683C636.079,631.856 636.208,635.66 636.208,641.093L636.208,644.125Z" style="fill:url(#_Linear23);fill-rule:nonzero;"/>
                <path d="M672.616,636.366C672.616,637.621 669.916,638.648 666.616,638.648L664.967,638.648C661.667,638.648 658.967,637.57 658.967,636.252C658.967,634.934 658.909,631.646 658.838,628.944L658.578,628.183C658.319,627.423 657.703,627.042 656.73,627.042C655.887,627.042 655.315,627.368 655.012,628.02C654.709,628.672 654.558,630.346 654.558,633.041L654.558,652.373C654.558,655.673 654.626,660.141 654.709,662.302L655.012,663.052C655.315,663.801 655.92,664.176 656.827,664.176C657.822,664.176 658.497,663.752 658.854,662.905C659.21,662.057 659.389,660.406 659.389,657.949L659.389,657.689C659.389,654.389 658.769,651.689 658.011,651.689C657.253,651.689 656.633,649.885 656.633,647.679C656.633,645.474 659.333,643.67 662.633,643.67L666.616,643.67C669.916,643.67 672.616,646.37 672.616,649.67L672.616,666C672.616,669.3 670.686,672 668.327,672C665.969,672 663.755,671.15 663.408,670.11C663.061,669.07 661.83,669.503 660.673,671.072L659.257,671.887C657.84,672.701 656.169,673.109 654.244,673.109C651.951,673.109 649.804,672.55 647.804,671.43C645.803,670.311 644.283,668.925 643.245,667.274C642.207,665.622 641.558,663.888 641.299,662.073C641.039,660.259 640.909,657.537 640.909,653.907L640.909,644.224C640.909,640.925 640.993,635.526 641.095,632.227C641.095,632.227 641.179,629.52 641.72,627.238C642.26,624.956 643.811,622.864 646.372,620.962C648.933,619.06 652.245,618.109 656.309,618.109C660.307,618.109 663.625,618.935 666.262,620.587C668.899,622.239 670.616,624.201 671.416,626.471C672.216,628.743 672.616,632.042 672.616,636.366" style="fill:url(#_Linear24);fill-rule:nonzero;"/>
                <path d="M691.549,628.248L691.549,633.985C691.549,637.285 692.724,639.89 694.159,639.773L694.775,639.349C695.391,638.925 695.699,637.551 695.699,635.225C695.699,633.629 695.566,631.077 695.402,629.552L694.808,629.031C694.213,628.509 693.127,628.248 691.549,628.248M677.901,625.217C677.901,621.917 680.074,619.217 682.731,619.217C685.388,619.217 690.261,619.28 693.56,619.356C693.56,619.356 698.362,619.467 700.643,619.967C702.923,620.467 704.781,621.744 706.219,623.798C707.656,625.852 708.375,629.128 708.375,633.627C708.375,637.735 707.867,640.496 706.852,641.909C705.835,643.322 703.836,644.169 700.854,644.452C703.555,645.125 705.371,646.028 706.3,647.158C707.229,648.288 707.808,649.326 708.035,650.271C708.262,651.216 708.375,653.82 708.375,658.079L708.375,666C708.375,669.3 705.675,672 702.375,672L701.699,672C698.4,672 695.699,669.3 695.699,666L695.699,660.46C695.699,657.161 695.599,652.402 695.477,649.885L695.034,649.211C694.591,648.538 693.43,648.201 691.549,648.201L691.549,666C691.549,669.3 688.849,672 685.549,672L683.901,672C680.601,672 677.901,669.3 677.901,666L677.901,625.217Z" style="fill:url(#_Linear25);fill-rule:nonzero;"/>
                <path d="M725.322,653.156C727.906,653.156 729.742,650.47 729.403,647.188C729.403,647.188 728.636,639.788 727.941,630.987C726.551,641.094 725.677,648.484 725.322,653.156M731.254,619.217C734.553,619.217 737.649,621.888 738.132,625.153L744.181,666.064C744.664,669.329 742.359,672 739.059,672L737.11,672C733.81,672 730.945,669.865 730.744,667.256C730.543,664.648 729.279,662.513 727.936,662.513C726.594,662.513 725.311,664.648 725.085,667.256C724.86,669.865 721.975,672 718.675,672L716.564,672C713.264,672 710.917,669.323 711.349,666.051L716.741,625.165C717.173,621.894 720.226,619.217 723.526,619.217L731.254,619.217Z" style="fill:url(#_Linear26);fill-rule:nonzero;"/>
                <path d="M761.025,628.248L761.025,635.68C761.025,638.98 761.351,641.695 761.749,641.713L762.03,641.713C763.283,641.713 764.153,641.403 764.64,640.784C765.126,640.165 765.37,638.876 765.37,636.92C765.37,634.536 765.243,631.245 765.088,629.607L764.526,629.063C763.964,628.52 762.797,628.248 761.025,628.248M747.376,625.217C747.376,621.917 750.076,619.217 753.376,619.217L755.122,619.217C758.422,619.217 763.819,619.338 767.116,619.485C767.116,619.485 767.698,619.511 769.697,620.098C771.696,620.684 773.198,621.532 774.204,622.64C775.209,623.749 775.89,625.091 776.246,626.667C776.603,628.243 776.781,630.683 776.781,633.986C776.781,636.514 776.625,641.205 776.435,644.408L775.743,645.951C775.052,647.495 773.782,648.679 771.934,649.505C770.087,650.331 767.671,650.744 764.689,650.744C762.673,650.744 761.025,653.444 761.025,656.744L761.025,666C761.025,669.3 758.325,672 755.025,672L753.376,672C750.076,672 747.376,669.3 747.376,666L747.376,625.217Z" style="fill:url(#_Linear27);fill-rule:nonzero;"/>
                <path d="M806.086,619.217C809.386,619.217 812.086,621.917 812.086,625.217L812.086,666C812.086,669.3 809.386,672 806.086,672L804.438,672C801.138,672 798.438,669.3 798.438,666L798.438,655.83C798.438,652.53 797.519,649.83 796.395,649.83C795.272,649.83 794.353,652.53 794.353,655.83L794.353,666C794.353,669.3 791.652,672 788.353,672L786.704,672C783.404,672 780.704,669.3 780.704,666L780.704,625.217C780.704,621.917 783.404,619.217 786.704,619.217L788.353,619.217C791.652,619.217 794.353,621.917 794.353,625.217L794.353,632.094C794.353,635.394 795.272,638.094 796.395,638.094C797.519,638.094 798.438,635.394 798.438,632.094L798.438,625.217C798.438,621.917 801.138,619.217 804.438,619.217L806.086,619.217Z" style="fill:url(#_Linear28);fill-rule:nonzero;"/>
                <path d="M840.646,619.217C843.946,619.217 845.881,621.806 844.946,624.971L838.394,647.141C837.458,650.306 836.693,655.595 836.693,658.895L836.693,666C836.693,669.3 833.993,672 830.693,672L830.05,672C826.75,672 824.05,669.3 824.05,666L824.05,658.895C824.05,655.595 823.31,650.299 822.406,647.125L816.098,624.988C815.193,621.814 817.154,619.217 820.454,619.217L820.992,619.217C824.292,619.217 827.464,621.875 828.042,625.124C828.042,625.124 830.056,636.453 830.307,640.017C831.063,634.386 832.33,627.452 834.108,619.217L840.646,619.217Z" style="fill:url(#_Linear29);fill-rule:nonzero;"/>
                <path d="M874.704,636.454C876.407,634.204 877.259,632.056 877.259,630.008C877.259,629.123 877.007,628.314 876.507,627.581C876.006,626.848 875.305,626.481 874.403,626.481C873.578,626.481 872.95,626.76 872.525,627.315C872.1,627.872 871.886,628.719 871.886,629.856C871.886,632.232 872.826,634.432 874.704,636.454M878.101,660.077L876.267,656.987C874.581,654.149 871.934,653.432 870.384,655.392L870.384,657.382C870.384,658.817 870.677,659.894 871.264,660.611C871.851,661.329 872.719,661.688 873.869,661.688C875.092,661.688 876.503,661.15 878.101,660.077M893.966,649.821C896.243,648.35 898.106,649.465 898.106,652.301C898.106,655.137 897.154,658.07 895.991,658.818C894.828,659.566 895.068,662.473 896.526,665.277C897.985,668.082 896.477,670.376 893.178,670.376L891.126,670.376C887.826,670.376 884.715,669.612 884.214,668.679C883.712,667.745 880.897,668.208 877.958,669.71C877.958,669.71 874.137,671.662 869.931,671.662C865.524,671.662 862.131,670.187 859.752,667.242C857.374,664.295 856.184,660.743 856.184,656.589C856.184,653.264 856.885,650.657 858.287,648.769C859.69,646.88 861.794,645.345 864.599,644.16C860.591,641.265 858.588,637.349 858.588,632.412C858.588,628.156 860.016,624.731 862.871,622.137C865.725,619.543 869.657,618.246 874.666,618.246C879.174,618.246 882.724,619.517 885.316,622.061C887.908,624.605 889.204,627.841 889.204,631.769C889.204,635.9 887.625,639.564 884.471,642.763L886.933,647.241C888.523,650.132 891.688,651.293 893.966,649.821" style="fill:url(#_Linear30);fill-rule:nonzero;"/>
                <path d="M924.293,628.248L924.293,656.97C924.293,660.27 925.723,662.792 927.47,662.574L927.923,661.78C928.377,660.986 928.605,658.829 928.605,655.308L928.605,640.801C928.605,637.501 928.57,633.036 928.529,630.878L928.377,630.205C928.226,629.531 927.88,629.036 927.34,628.721C926.799,628.406 925.784,628.248 924.293,628.248M910.644,625.217C910.644,621.917 912.942,619.217 915.75,619.217C918.559,619.217 923.556,619.291 926.854,619.383C926.854,619.383 931.906,619.522 934.23,620.13C936.553,620.739 938.319,621.739 939.53,623.13C940.74,624.521 941.497,626.069 941.799,627.775C942.102,629.482 942.253,632.834 942.253,637.833L942.253,650.319C942.253,653.619 942.178,659.018 942.085,662.316C942.085,662.316 942.032,664.225 941.589,665.822C941.146,667.42 940.373,668.67 939.271,669.571C938.169,670.474 936.807,671.104 935.186,671.463C933.565,671.821 931.122,672 927.859,672L916.644,672C913.344,672 910.644,669.3 910.644,666L910.644,625.217Z" style="fill:url(#_Linear31);fill-rule:nonzero;"/>
                <path d="M947.343,625.217C947.343,621.917 950.043,619.217 953.343,619.217L964.101,619.217C967.401,619.217 970.101,621.594 970.101,624.499C970.101,627.404 968.051,629.78 965.547,629.78C963.042,629.78 960.992,632.032 960.992,634.785C960.992,637.537 962.91,639.789 965.255,639.789C967.6,639.789 969.518,642.049 969.518,644.81C969.518,647.571 967.6,649.83 965.255,649.83C962.91,649.83 960.992,652.442 960.992,655.634C960.992,658.826 963.246,661.437 966.001,661.437C968.756,661.437 971.01,663.814 971.01,666.718C971.01,669.623 968.309,672 965.01,672L953.343,672C950.043,672 947.343,669.3 947.343,666L947.343,625.217Z" style="fill:url(#_Linear32);fill-rule:nonzero;"/>
                <path d="M1003.85,633.106C1003.85,634.253 1001.15,635.192 997.851,635.192L997.175,635.192C993.875,635.192 991.175,634.312 991.175,633.236C991.175,632.161 991.102,629.936 991.013,628.292L990.689,627.792C990.365,627.292 989.824,627.042 989.068,627.042C988.247,627.042 987.624,627.379 987.203,628.053C986.782,628.728 986.571,629.75 986.571,631.121C986.571,632.882 986.808,634.209 987.282,635.1C987.735,635.992 989.019,637.068 991.139,638.328C997.215,641.954 1001.04,644.93 1002.62,647.255C1004.2,649.582 1004.99,653.331 1004.99,658.503C1004.99,662.264 1004.55,665.035 1003.67,666.816C1002.8,668.599 1001.11,670.093 998.599,671.299C996.092,672.506 993.174,673.109 989.846,673.109C986.193,673.109 983.075,672.413 980.493,671.023C977.909,669.632 976.219,667.86 975.419,665.708C974.619,663.556 974.219,660.503 974.219,656.547C974.219,654.647 976.919,653.091 980.219,653.091L980.896,653.091C984.196,653.091 986.896,654.536 986.896,656.302C986.896,658.069 986.976,660.976 987.074,662.763L987.431,663.328C987.787,663.894 988.419,664.176 989.327,664.176C990.235,664.176 990.91,663.817 991.353,663.1C991.796,662.383 992.018,661.318 992.018,659.905C992.018,656.797 991.597,654.765 990.753,653.808C989.888,652.852 987.76,651.254 984.367,649.016C980.973,646.755 978.726,645.115 977.624,644.093C976.521,643.072 975.607,641.659 974.884,639.855C974.16,638.051 973.798,635.747 973.798,632.943C973.798,628.9 974.31,625.945 975.338,624.075C976.364,622.206 978.022,620.745 980.315,619.69C982.605,618.636 985.372,618.109 988.614,618.109C992.158,618.109 995.179,618.685 997.675,619.836C1000.17,620.989 1001.83,622.44 1002.63,624.189C1003.45,625.939 1003.85,628.912 1003.85,633.106" style="fill:url(#_Linear33);fill-rule:nonzero;"/>
                <path d="M1016.91,619.217C1020.21,619.217 1022.91,621.917 1022.91,625.217L1022.91,666C1022.91,669.3 1020.21,672 1016.91,672L1015.26,672C1011.97,672 1009.26,669.3 1009.26,666L1009.26,625.217C1009.26,621.917 1011.97,619.217 1015.26,619.217L1016.91,619.217Z" style="fill:url(#_Linear34);fill-rule:nonzero;"/>
                <path d="M1059.71,636.366C1059.71,637.621 1057.01,638.648 1053.71,638.648L1052.06,638.648C1048.76,638.648 1046.06,637.57 1046.06,636.252C1046.06,634.934 1046,631.646 1045.93,628.944L1045.67,628.183C1045.41,627.423 1044.8,627.042 1043.82,627.042C1042.98,627.042 1042.41,627.368 1042.11,628.02C1041.8,628.672 1041.65,630.346 1041.65,633.041L1041.65,652.373C1041.65,655.673 1041.72,660.141 1041.8,662.302L1042.11,663.052C1042.41,663.801 1043.01,664.176 1043.92,664.176C1044.91,664.176 1045.59,663.752 1045.95,662.905C1046.3,662.057 1046.48,660.406 1046.48,657.949L1046.48,657.689C1046.48,654.389 1045.86,651.689 1045.11,651.689C1044.35,651.689 1043.73,649.885 1043.73,647.679C1043.73,645.474 1046.43,643.67 1049.73,643.67L1053.71,643.67C1057.01,643.67 1059.71,646.37 1059.71,649.67L1059.71,666C1059.71,669.3 1057.78,672 1055.42,672C1053.06,672 1050.85,671.15 1050.5,670.11C1050.15,669.07 1048.92,669.503 1047.77,671.072L1046.35,671.887C1044.93,672.701 1043.26,673.109 1041.34,673.109C1039.05,673.109 1036.9,672.55 1034.9,671.43C1032.9,670.311 1031.38,668.925 1030.34,667.274C1029.3,665.622 1028.65,663.888 1028.39,662.073C1028.13,660.259 1028,657.537 1028,653.907L1028,644.224C1028,640.925 1028.09,635.526 1028.19,632.227C1028.19,632.227 1028.27,629.52 1028.81,627.238C1029.35,624.956 1030.9,622.864 1033.47,620.962C1036.03,619.06 1039.34,618.109 1043.4,618.109C1047.4,618.109 1050.72,618.935 1053.36,620.587C1055.99,622.239 1057.71,624.201 1058.51,626.471C1059.31,628.743 1059.71,632.042 1059.71,636.366" style="fill:url(#_Linear35);fill-rule:nonzero;"/>
                <path d="M1089.76,619.217C1092.9,619.217 1095.47,621.917 1095.47,625.217L1095.47,666C1095.47,669.3 1092.78,672 1089.49,672C1086.2,672 1082.74,669.411 1081.8,666.246L1078.11,653.759C1077.17,650.594 1076.41,650.705 1076.41,654.005L1076.41,666C1076.41,669.3 1073.84,672 1070.7,672C1067.56,672 1064.99,669.3 1064.99,666L1064.99,625.217C1064.99,621.917 1067.56,619.217 1070.7,619.217C1073.84,619.217 1077.23,621.787 1078.25,624.928L1082.22,637.273C1083.23,640.414 1084.06,640.284 1084.06,636.984L1084.06,625.217C1084.06,621.917 1086.62,619.217 1089.76,619.217" style="fill:url(#_Linear36);fill-rule:nonzero;"/>
            </g>
        </g>
        <g transform="matrix(2.59171,0,0,2.59171,-684.38,-752.899)">
            <g>
                <path d="M336.129,526.386C332.942,527.242 329.829,527.933 329.212,527.923C328.595,527.913 324.624,527.71 322.027,527.564C319.431,527.419 317.307,524.599 317.307,521.3L317.307,473.61C317.307,470.31 319.557,467.61 322.307,467.61C325.057,467.61 330.004,467.726 333.302,467.868C333.302,467.868 339.9,468.152 344.78,472.839C349.812,477.68 350.124,484.604 350.124,484.604C350.272,487.901 350.393,493.299 350.393,496.598L350.393,497.587C350.393,500.886 350.135,506.274 349.819,509.559C349.819,509.559 349.052,517.546 346.045,521.355C343.672,524.36 336.129,526.386 336.129,526.386M296.194,592.665C296.194,595.965 298.894,598.665 302.194,598.665L311.307,598.665C314.607,598.665 317.307,595.965 317.307,592.665L317.307,540.993C317.307,537.693 320.007,534.993 323.307,534.993L332.342,534.993C335.642,534.993 341.036,534.802 344.327,534.569C344.327,534.569 351.855,534.035 356.105,532.144C359.379,530.69 361.478,528.853 362.526,526.528C363.363,524.671 364.247,514.544 364.247,514.544C364.533,511.257 364.768,505.867 364.768,502.567L364.768,500.798C364.768,497.498 364.65,492.1 364.506,488.803C364.506,488.803 364.027,477.823 363.406,475.093C362.715,472.058 361.475,469.592 359.615,467.551C357.882,465.65 354.774,464.006 350.628,462.796C345.545,461.312 333.595,460.811 333.595,460.811C330.298,460.673 324.9,460.559 321.6,460.559L302.194,460.559C298.894,460.559 296.194,463.26 296.194,466.559L296.194,592.665ZM337.307,612.665C337.307,615.965 334.607,618.665 331.307,618.665L282.194,618.665C278.894,618.665 276.194,615.965 276.194,612.665L276.194,446.559C276.194,443.26 278.894,440.559 282.194,440.559L321.6,440.559C324.9,440.559 330.297,440.683 333.594,440.835C333.594,440.835 349.229,441.553 356.232,443.596C364.015,445.869 370.126,449.394 374.394,454.076C378.586,458.673 381.45,464.251 382.907,470.655C384.159,476.157 384.572,488.801 384.572,488.801C384.68,492.099 384.768,497.498 384.768,500.798L384.768,502.567C384.768,505.867 384.593,511.261 384.379,514.554C384.379,514.554 383.457,528.761 380.76,534.746C377.644,541.658 372.082,546.931 364.229,550.421C357.31,553.497 344.324,554.521 344.324,554.521C341.034,554.781 338.109,554.993 337.825,554.993C337.54,554.993 337.307,557.693 337.307,560.993L337.307,612.665Z" style="fill:url(#_Linear37);fill-rule:nonzero;stroke:black;stroke-width:0.09px;"/>
                <path d="M396.585,592.665C396.585,595.965 399.285,598.665 402.585,598.665L441.873,598.665C445.174,598.665 447.873,596.046 447.873,592.845C447.873,589.644 445.174,587.024 441.873,587.024L423.698,587.024C420.397,587.024 417.698,584.324 417.698,581.024L417.698,538.259C417.698,534.959 420.397,532.259 423.698,532.259L437.382,532.259C440.681,532.259 443.382,529.991 443.382,527.22C443.382,524.448 440.681,522.181 437.382,522.181L423.698,522.181C420.397,522.181 417.698,519.48 417.698,516.181L417.698,478.2C417.698,474.9 420.397,472.2 423.698,472.2L439.14,472.2C442.438,472.2 445.14,469.581 445.14,466.38C445.14,463.179 442.438,460.56 439.14,460.56L402.585,460.56C399.285,460.56 396.585,463.26 396.585,466.56L396.585,592.665ZM467.873,612.665C467.873,615.965 465.174,618.665 461.873,618.665L382.585,618.665C379.285,618.665 376.585,615.965 376.585,612.665L376.585,446.56C376.585,443.26 379.285,440.56 382.585,440.56L459.14,440.56C462.438,440.56 465.14,443.26 465.14,446.56L465.14,486.2C465.14,489.5 464.744,494.446 464.26,497.19C463.777,499.935 463.382,504.881 463.382,508.181L463.382,546.259C463.382,549.559 464.168,554.842 465.128,557.999L466.126,561.284C467.087,564.441 467.873,569.725 467.873,573.024L467.873,612.665Z" style="fill:url(#_Linear38);fill-rule:nonzero;stroke:black;stroke-width:0.09px;"/>
                <path d="M479.69,592.665C479.69,595.965 482.39,598.665 485.69,598.665L494.803,598.665C498.103,598.665 500.803,595.965 500.803,592.665L500.803,532.213C500.803,528.913 503.3,526.488 506.351,526.825C509.402,527.161 511.924,527.439 511.954,527.442C511.984,527.446 509.572,526.594 506.461,525.534C503.349,524.474 500.803,520.906 500.803,517.606L500.803,473.61C500.803,470.311 503.053,467.61 505.803,467.61C508.553,467.61 513.483,467.943 516.758,468.349C516.758,468.349 523.481,469.183 527.19,472.418C531.305,476.01 532.444,483.879 532.444,483.879C532.917,487.145 533.303,491.773 533.303,494.163C533.303,496.553 533.168,501.206 533.003,504.501L529.606,513.242C528.108,516.183 529.076,518.094 531.757,517.49C534.438,516.885 538.982,515.711 541.855,514.88C544.729,514.05 550.075,509.645 551.28,506.574C551.28,506.574 551.487,506.047 551.487,493.724C551.487,479.633 548.946,473.064 546.814,470.035C543.914,465.914 540.497,463.543 536.064,462.576C531.844,461.656 504.788,460.758 504.788,460.758C501.49,460.649 496.091,460.56 492.792,460.56L485.69,460.56C482.39,460.56 479.69,463.26 479.69,466.56L479.69,592.665ZM533.303,592.665C533.303,595.965 536.003,598.665 539.303,598.665L545.487,598.665C548.787,598.665 551.487,595.965 551.487,592.665L551.487,572.966C551.487,569.666 551.405,564.267 551.304,560.969C551.304,560.969 550.863,546.47 550.737,545.911L550.602,545.349C549.089,542.967 546.188,540.18 544.155,539.157C542.123,538.133 533.87,535.009 531.814,534.296C529.758,533.582 528.571,533.531 529.176,534.183L529.64,534.884C531.841,538.216 532.815,550.146 532.815,550.146C533.084,553.435 533.303,558.826 533.303,562.126L533.303,592.665ZM571.487,612.665C571.487,615.965 568.787,618.665 565.487,618.665L465.69,618.665C462.39,618.665 459.69,615.965 459.69,612.665L459.69,446.56C459.69,443.26 462.39,440.56 465.69,440.56L492.792,440.56C496.091,440.56 501.491,440.624 504.79,440.703C504.79,440.703 532.68,441.369 540.325,443.035C549.688,445.078 557.373,450.289 563.169,458.524C568.767,466.478 571.487,477.992 571.487,493.724C571.487,508.523 569.128,536.865 570.182,541.23C570.827,543.903 571.315,560.968 571.315,560.968C571.41,564.267 571.487,569.666 571.487,572.966L571.487,612.665Z" style="fill:url(#_Linear39);fill-rule:nonzero;stroke:black;stroke-width:0.09px;"/>
                <path d="M678.315,592.665C678.317,595.965 681.018,598.665 684.318,598.665L688.26,598.665C691.56,598.665 694.26,595.965 694.26,592.665L694.26,466.56C694.26,463.26 691.56,460.56 688.26,460.56L665.571,460.56C662.271,460.56 659.228,463.238 658.809,466.511L642.706,592.341C642.287,595.615 641.556,595.621 641.082,592.355L626.428,491.397C625.954,488.131 625.205,482.784 624.764,479.513L622.94,466.496C622.461,463.231 619.37,460.56 616.07,460.56L593.405,460.56C590.105,460.56 587.405,463.26 587.405,466.56L587.405,592.665C587.405,595.965 590.105,598.665 593.405,598.665L597.347,598.665C600.647,598.665 603.348,595.965 603.35,592.665L603.388,510.363C603.39,507.063 606.084,504.17 609.376,503.934L617.303,503.366C620.595,503.13 623.674,505.609 624.147,508.874L636.277,592.727C636.75,595.993 638.955,598.665 641.177,598.665C643.4,598.665 645.577,595.989 646.015,592.718L657.565,506.545C658.003,503.275 661.056,500.778 664.349,500.997L672.287,501.524C675.58,501.743 678.275,504.622 678.277,507.922L678.315,592.665ZM714.26,612.665C714.26,615.965 711.56,618.665 708.26,618.665L573.405,618.665C570.105,618.665 567.405,615.965 567.405,612.665L567.405,446.56C567.405,443.26 570.105,440.56 573.405,440.56L633.08,440.56C636.38,440.56 639.392,442.441 639.774,444.741C640.156,447.04 640.504,449.141 640.548,449.408C640.592,449.676 640.993,448.176 641.338,445.474C641.684,442.771 644.668,440.56 647.967,440.56L708.26,440.56C711.56,440.56 714.26,443.26 714.26,446.56L714.26,612.665Z" style="fill:url(#_Linear40);fill-rule:nonzero;stroke:black;stroke-width:0.09px;"/>
                <path d="M832.327,592.665C832.327,595.965 835.027,598.665 838.327,598.665L847.44,598.665C850.74,598.665 853.44,595.965 853.44,592.665L853.44,538.259C853.44,534.959 856.14,532.259 859.44,532.259L872.831,532.259C876.131,532.259 878.831,529.991 878.831,527.22C878.831,524.448 876.131,522.181 872.831,522.181L859.44,522.181C856.14,522.181 853.44,519.48 853.44,516.181L853.44,478.2C853.44,474.9 856.14,472.2 859.44,472.2L875.956,472.2C879.256,472.2 881.956,469.581 881.956,466.38C881.956,463.179 879.256,460.56 875.956,460.56L838.327,460.56C835.027,460.56 832.327,463.26 832.327,466.56L832.327,592.665ZM899.083,612.665C899.097,615.965 896.408,618.665 893.108,618.665L818.327,618.665C815.027,618.665 812.327,615.965 812.327,612.665L812.327,446.56C812.327,443.26 815.027,440.56 818.327,440.56L895.956,440.56C899.256,440.56 901.956,443.26 901.956,446.56L901.956,486.2C901.956,489.5 901.253,494.446 900.393,497.19C899.534,499.935 898.831,504.881 898.831,508.181L898.831,546.259C898.831,549.559 898.842,554.959 898.856,558.259L899.083,612.665Z" style="fill:url(#_Linear41);fill-rule:nonzero;stroke:black;stroke-width:0.09px;"/>
                <path d="M911.916,592.665C911.916,595.965 914.617,598.665 917.916,598.665L927.029,598.665C930.329,598.665 933.03,595.965 933.03,592.665L933.03,533.376C933.03,530.076 935.439,527.376 938.383,527.376C941.327,527.376 943.368,526.344 942.384,525.074C941.399,523.805 938.892,522.767 936.812,522.767C934.732,522.767 933.03,520.066 933.03,516.767L933.03,473.61C933.03,470.311 935.279,467.61 938.03,467.61C940.779,467.61 945.709,467.943 948.984,468.349C948.984,468.349 955.708,469.183 959.416,472.417C963.531,476.009 964.67,483.879 964.67,483.879C965.143,487.145 965.529,491.773 965.529,494.163C965.529,496.553 965.396,501.206 965.229,504.501L961.831,513.243C960.333,516.184 961.302,518.095 963.982,517.49C966.663,516.885 971.208,515.711 974.083,514.88C976.955,514.049 982.302,509.645 983.507,506.573C983.507,506.573 983.713,506.048 983.713,493.724C983.713,479.633 981.172,473.064 979.041,470.035C976.139,465.914 972.723,463.543 968.29,462.576C964.07,461.656 937.014,460.758 937.014,460.758C933.716,460.649 928.317,460.56 925.018,460.56L917.916,460.56C914.617,460.56 911.916,463.26 911.916,466.56L911.916,592.665ZM965.529,592.665C965.529,595.965 968.229,598.665 971.529,598.665L977.713,598.665C981.013,598.665 983.713,595.965 983.713,592.665L983.713,572.966C983.713,569.666 983.631,564.267 983.53,560.969C983.53,560.969 983.089,546.47 982.964,545.911L982.829,545.349C981.315,542.967 978.416,540.182 976.386,539.16C974.354,538.138 966.113,535.014 964.083,534.308C962.054,533.602 960.853,533.555 961.416,534.204L961.867,534.884C964.067,538.218 965.041,550.146 965.041,550.146C965.31,553.435 965.529,558.826 965.529,562.126L965.529,592.665ZM1003.71,612.665C1003.71,615.965 1001.01,618.665 997.713,618.665L897.916,618.665C894.617,618.665 891.916,615.965 891.916,612.665L891.916,446.56C891.916,443.26 894.617,440.56 897.916,440.56L925.018,440.56C928.317,440.56 933.718,440.624 937.016,440.703C937.016,440.703 964.906,441.369 972.551,443.035C981.913,445.078 989.599,450.289 995.396,458.524C1000.99,466.478 1003.71,477.991 1003.71,493.724C1003.71,508.524 1001.36,536.866 1002.41,541.23C1003.05,543.903 1003.54,560.968 1003.54,560.968C1003.64,564.267 1003.71,569.666 1003.71,572.966L1003.71,612.665Z" style="fill:url(#_Linear42);fill-rule:nonzero;stroke:black;stroke-width:0.09px;"/>
                <path d="M1061.63,593.4C1058.49,594.405 1053.33,594.458 1050.17,593.519C1050.17,593.519 1043.41,591.512 1041.25,585.289C1040.38,582.793 1039.85,571.006 1039.85,571.006C1039.7,567.71 1039.57,562.312 1039.57,559.012L1039.57,497.184C1039.57,493.884 1039.78,488.492 1040.03,485.202C1040.03,485.202 1040.9,473.943 1043.04,470.828C1046.05,466.425 1050.74,463.997 1056.21,463.997C1062.85,463.997 1068.2,467.504 1070.54,473.379C1071.54,475.907 1072.1,485.195 1072.1,485.195C1072.3,488.489 1072.46,493.884 1072.46,497.184L1072.46,557.84C1072.46,561.14 1072.34,566.538 1072.19,569.834C1072.19,569.834 1071.64,581.966 1070.83,584.528C1068.74,591.127 1061.63,593.4 1061.63,593.4M1062,457.745C1058.71,457.467 1053.33,457.468 1050.04,457.749C1050.04,457.749 1041.99,458.436 1036.58,460.796C1031.5,463.016 1027.63,466.051 1024.73,470.075C1021.78,474.169 1020.08,478.549 1019.52,483.47C1018.82,489.674 1018.54,510.087 1018.54,510.087C1018.5,513.387 1018.46,518.787 1018.46,522.087L1018.46,537.137C1018.46,540.437 1018.5,545.837 1018.54,549.137C1018.54,549.137 1018.83,570.041 1019.56,576.126C1020.14,580.926 1021.91,585.277 1024.99,589.428C1028.01,593.509 1031.95,596.504 1037.01,598.584C1042.51,600.84 1048.9,601.985 1056.02,601.985C1063.51,601.985 1070.05,600.788 1075.45,598.426C1080.53,596.208 1084.41,593.172 1087.31,589.147C1090.26,585.056 1091.96,580.673 1092.52,575.752C1093.22,569.535 1093.5,549.137 1093.5,549.137C1093.54,545.837 1093.58,540.437 1093.58,537.137L1093.58,522.087C1093.58,518.787 1093.54,513.387 1093.49,510.087C1093.49,510.087 1093.21,489.185 1092.48,483.098C1091.9,478.299 1090.12,473.947 1087.05,469.795C1084.02,465.716 1080.09,462.721 1075.02,460.639C1069.53,458.383 1062,457.745 1062,457.745M1061.99,621.445C1058.71,621.742 1053.33,621.748 1050.04,621.458C1050.04,621.458 1037.34,620.337 1029.42,617.086C1021,613.629 1005.66,615.264 1005.66,615.264C1002.38,615.614 999.788,613.202 999.9,609.903C999.9,609.903 1000.69,586.737 999.702,578.508C998.866,571.539 998.545,549.137 998.545,549.137C998.498,545.837 998.459,540.437 998.459,537.137L998.459,522.087C998.459,518.787 998.497,513.387 998.543,510.087C998.543,510.087 998.847,488.265 999.646,481.22C1000.58,472.921 1003.56,465.237 1008.5,458.385C1013.48,451.469 1020.24,446.113 1028.58,442.47C1036.52,438.999 1045.75,437.239 1056.02,437.239C1065.75,437.239 1074.7,438.887 1082.62,442.138C1091.04,445.596 1097.93,450.894 1103.11,457.885C1108.24,464.808 1111.35,472.489 1112.33,480.715C1113.17,487.687 1113.49,510.087 1113.49,510.087C1113.54,513.387 1113.58,518.787 1113.58,522.087L1113.58,537.137C1113.58,540.437 1113.54,545.837 1113.49,549.137C1113.49,549.137 1113.19,570.941 1112.39,578.001C1111.45,586.304 1108.47,593.986 1103.54,600.837C1098.55,607.755 1091.8,613.11 1083.46,616.754C1075.51,620.225 1061.99,621.445 1061.99,621.445" style="fill:url(#_Linear43);fill-rule:nonzero;stroke:black;stroke-width:0.09px;"/>
                <path d="M1132.76,562.024C1129.46,562.024 1126.76,562.103 1126.76,562.2C1126.76,562.296 1126.98,565.067 1127.24,568.357C1127.24,568.357 1128.38,582.678 1129.74,586.316C1131.28,590.445 1134.76,593.913 1140.38,596.919C1146.65,600.281 1154.55,601.985 1163.83,601.985C1172.3,601.985 1179.72,600.491 1185.88,597.544C1191.33,594.938 1194.91,591.965 1196.51,588.71C1197.61,586.5 1199.44,580.904 1199.44,568.235C1199.44,551.579 1196.5,543.784 1194.05,540.177C1191.85,536.961 1184.85,529.593 1162.62,516.4C1154.34,511.507 1149.59,507.296 1147.25,502.768C1145.04,498.6 1143.97,493.183 1143.97,486.213C1143.97,480.132 1145.09,475.387 1147.4,471.707C1150.48,466.806 1155.62,463.997 1161.49,463.997C1167.18,463.997 1171.89,466.405 1174.74,470.778C1176.94,474.148 1177.41,480.707 1177.41,480.707C1177.64,483.999 1177.83,487.079 1177.83,487.551C1177.83,488.024 1180.53,488.411 1183.83,488.411L1189.98,488.411C1193.28,488.411 1195.69,485.726 1195.35,482.443C1195.35,482.443 1194.22,471.661 1193.29,469.674C1191.89,466.67 1188.51,463.921 1183.24,461.503C1177.08,458.673 1169.3,457.239 1160.12,457.239C1151.85,457.239 1144.83,458.527 1139.28,461.068C1134.33,463.334 1130.93,466.237 1128.88,469.943C1127.62,472.238 1125.49,478.112 1125.49,491.672C1125.49,498.747 1126.35,504.452 1128.03,508.63C1129.65,512.627 1131.58,515.683 1133.79,517.717C1135.8,519.565 1140.73,523.451 1152.85,531.48C1167.34,540.991 1169.67,543.256 1169.67,543.256C1172.03,545.56 1173.98,547.466 1174.01,547.493C1174.03,547.519 1175.26,549.954 1176.74,552.904C1176.74,552.904 1180.37,560.154 1180.37,572.434C1180.37,578.621 1179.23,583.476 1176.87,587.277C1173.68,592.406 1168.5,595.227 1162.27,595.227C1153.91,595.227 1149.81,590.726 1148.11,588.044C1145.86,584.502 1145.36,577.248 1145.36,577.248C1145.13,573.956 1144.94,569.184 1144.94,566.643C1144.94,564.103 1142.24,562.024 1138.94,562.024L1132.76,562.024ZM1169.8,621.396C1166.52,621.72 1161.14,621.701 1157.86,621.355C1157.86,621.355 1140.15,619.484 1130.94,614.55C1120.98,609.222 1114.28,602.078 1111.01,593.316C1108.15,585.674 1107.12,568.365 1107.12,568.365C1106.92,565.071 1106.76,559.675 1106.76,556.376L1106.76,548.024C1106.76,544.724 1107.5,539.427 1108.4,536.254C1108.4,536.254 1112.22,522.88 1109.49,516.117C1106.8,509.459 1105.49,501.461 1105.49,491.672C1105.49,477.715 1107.41,467.446 1111.38,460.275C1115.51,452.791 1122.1,446.938 1130.96,442.882C1139.14,439.137 1148.95,437.239 1160.12,437.239C1172.2,437.239 1182.78,439.287 1191.58,443.326C1201.29,447.779 1207.96,453.802 1211.42,461.228C1214.56,467.963 1215.66,486.171 1215.66,486.171C1215.86,489.465 1216.02,494.861 1216.02,498.161L1216.02,502.411C1216.02,505.711 1214.52,510.657 1212.69,513.402C1212.69,513.402 1208.66,519.439 1209.61,526.277C1209.74,527.254 1210.05,528.146 1210.57,528.907C1216.54,537.66 1219.44,550.523 1219.44,568.235C1219.44,581.176 1217.8,590.77 1214.45,597.566C1210.81,604.936 1204.1,610.999 1194.51,615.586C1185.64,619.832 1169.8,621.396 1169.8,621.396" style="fill:url(#_Linear44);fill-rule:nonzero;stroke:black;stroke-width:0.09px;"/>
                <path d="M1249.61,592.665C1249.61,595.965 1252.31,598.665 1255.61,598.665L1264.73,598.665C1268.03,598.665 1270.73,595.965 1270.73,592.665L1270.73,478.2C1270.73,474.9 1273.42,472.2 1276.73,472.2L1289.14,472.2C1292.44,472.2 1295.14,469.581 1295.14,466.38C1295.14,463.179 1292.44,460.56 1289.14,460.56L1231.3,460.56C1228,460.56 1225.3,463.179 1225.3,466.38C1225.3,469.581 1228,472.2 1231.3,472.2L1243.61,472.2C1246.91,472.2 1249.61,474.9 1249.61,478.2L1249.61,592.665ZM1290.73,612.665C1290.73,615.965 1288.03,618.665 1284.73,618.665L1235.61,618.665C1232.31,618.665 1229.61,615.965 1229.61,612.665L1229.61,498.2C1229.61,494.9 1226.91,492.2 1223.61,492.2L1211.3,492.2C1208,492.2 1205.3,489.5 1205.3,486.2L1205.3,446.56C1205.3,443.26 1208,440.56 1211.3,440.56L1309.14,440.56C1312.44,440.56 1315.14,443.26 1315.14,446.56L1315.14,486.2C1315.14,489.5 1312.44,492.2 1309.14,492.2L1296.73,492.2C1293.42,492.2 1290.73,494.9 1290.73,498.2L1290.73,612.665Z" style="fill:url(#_Linear45);fill-rule:nonzero;stroke:black;stroke-width:0.09px;"/>
            </g>
            <g transform="matrix(1,0,0,1,0.277809,0)">
                <path d="M327.307,477.61L327.307,511.844C327.307,515.144 328.288,517.888 329.487,517.942L330.334,517.942C334.109,517.942 336.731,517.014 338.196,515.159C339.661,513.303 340.393,509.446 340.393,503.587L340.393,496.598C340.393,493.298 340.138,487.91 339.826,484.625C339.826,484.625 339.546,481.679 337.854,480.051C336.16,478.425 332.644,477.61 327.307,477.61M286.194,456.559C286.194,453.259 288.894,450.559 292.194,450.559L321.6,450.559C324.9,450.559 330.297,450.679 333.594,450.825C333.594,450.825 347.407,451.438 353.43,453.196C359.451,454.954 363.977,457.493 367.004,460.813C370.032,464.133 372.082,468.154 373.157,472.874C374.231,477.595 374.768,484.902 374.768,494.798L374.768,502.567C374.768,505.867 374.607,511.262 374.41,514.556C374.41,514.556 373.725,526.015 371.643,530.637C369.558,535.261 365.735,538.808 360.168,541.282C354.602,543.757 347.327,544.993 338.342,544.993L333.307,544.993C330.007,544.993 327.307,547.693 327.307,550.993L327.307,602.665C327.307,605.964 324.607,608.665 321.307,608.665L292.194,608.665C288.894,608.665 286.194,605.964 286.194,602.665L286.194,456.559Z" style="fill:url(#_Linear46);fill-rule:nonzero;"/>
                <path d="M386.585,456.559C386.585,453.259 389.285,450.559 392.585,450.559L449.14,450.559C452.438,450.559 455.14,453.259 455.14,456.559L455.14,476.2C455.14,479.499 452.438,482.2 449.14,482.2L433.698,482.2C430.397,482.2 427.698,484.9 427.698,488.2L427.698,506.18C427.698,509.48 430.397,512.18 433.698,512.18L447.382,512.18C450.682,512.18 453.382,514.88 453.382,518.18L453.382,536.258C453.382,539.558 450.682,542.258 447.382,542.258L433.698,542.258C430.397,542.258 427.698,544.958 427.698,548.258L427.698,571.024C427.698,574.324 430.397,577.024 433.698,577.024L451.873,577.024C455.174,577.024 457.873,579.724 457.873,583.024L457.873,602.664C457.873,605.964 455.174,608.664 451.873,608.664L392.585,608.664C389.285,608.664 386.585,605.964 386.585,602.664L386.585,456.559Z" style="fill:url(#_Linear47);fill-rule:nonzero;"/>
                <path d="M510.803,477.61L510.803,506.766C510.803,510.066 513.494,512.549 516.783,512.283C516.783,512.283 518.664,512.131 520.52,510.862C522.375,509.592 523.303,505.476 523.303,498.508L523.303,495.817C523.303,492.517 523.013,487.132 522.659,483.852C522.659,483.852 522.407,481.516 520.617,479.954C518.825,478.391 515.554,477.61 510.803,477.61M469.69,456.559C469.69,453.259 472.39,450.559 475.69,450.559L492.791,450.559C496.091,450.559 501.49,450.621 504.79,450.697C504.79,450.697 531.325,451.308 538.196,452.805C545.063,454.304 550.661,458.128 554.992,464.28C559.321,470.432 561.487,480.247 561.487,493.723C561.487,506.028 559.956,514.297 556.897,518.528C553.835,522.761 547.815,525.3 538.83,526.145C546.968,528.164 552.436,530.866 555.237,534.251C558.034,537.636 559.778,540.745 560.461,543.577C561.145,546.409 561.487,554.206 561.487,566.965L561.487,602.665C561.487,605.964 558.786,608.665 555.487,608.665L529.303,608.665C526.003,608.665 523.303,605.964 523.303,602.665L523.303,562.126C523.303,558.826 523.171,553.429 523.011,550.133C523.011,550.133 522.634,542.422 521.301,540.403C519.966,538.386 516.467,537.376 510.803,537.376L510.803,602.665C510.803,605.964 508.103,608.665 504.803,608.665L475.69,608.665C472.39,608.665 469.69,605.964 469.69,602.665L469.69,456.559Z" style="fill:url(#_Linear48);fill-rule:nonzero;"/>
                <path d="M698.26,450.559C701.56,450.559 704.26,453.259 704.26,456.559L704.26,602.664C704.26,605.964 701.56,608.664 698.26,608.664L674.322,608.664C671.023,608.664 668.321,605.964 668.32,602.664L668.277,507.926C668.275,504.626 667.915,504.602 667.477,507.873L654.764,602.718C654.326,605.988 651.267,608.664 647.967,608.664L634.479,608.664C631.179,608.664 628.092,605.992 627.62,602.726L614.25,510.306C613.778,507.04 613.389,507.068 613.388,510.368L613.345,602.664C613.343,605.964 610.642,608.664 607.342,608.664L583.405,608.664C580.105,608.664 577.405,605.964 577.405,602.664L577.405,456.559C577.405,453.259 580.105,450.559 583.405,450.559L624.603,450.559C627.903,450.559 631.015,453.227 631.52,456.489C631.52,456.489 633.807,471.268 635.483,484.171L640.459,518.449C640.933,521.715 641.663,521.709 642.082,518.435L650.007,456.511C650.426,453.237 653.469,450.559 656.769,450.559L698.26,450.559Z" style="fill:url(#_Linear49);fill-rule:nonzero;"/>
                <path d="M822.327,456.559C822.327,453.259 825.027,450.559 828.327,450.559L885.956,450.559C889.256,450.559 891.956,453.259 891.956,456.559L891.956,476.2C891.956,479.499 889.256,482.2 885.956,482.2L869.44,482.2C866.14,482.2 863.44,484.9 863.44,488.2L863.44,506.18C863.44,509.48 866.14,512.18 869.44,512.18L882.831,512.18C886.131,512.18 888.831,514.88 888.831,518.18L888.831,536.258C888.831,539.558 886.131,542.258 882.831,542.258L869.44,542.258C866.14,542.258 863.44,544.958 863.44,548.258L863.44,602.664C863.44,605.964 860.74,608.664 857.44,608.664L828.327,608.664C825.027,608.664 822.327,605.964 822.327,602.664L822.327,456.559Z" style="fill:url(#_Linear50);fill-rule:nonzero;"/>
                <path d="M943.03,477.61L943.03,506.766C943.03,510.066 945.721,512.549 949.01,512.283C949.01,512.283 950.891,512.131 952.747,510.862C954.602,509.592 955.53,505.476 955.53,498.508L955.53,495.817C955.53,492.517 955.24,487.132 954.886,483.852C954.886,483.852 954.634,481.516 952.844,479.954C951.052,478.391 947.781,477.61 943.03,477.61M901.917,456.559C901.917,453.259 904.617,450.559 907.917,450.559L925.018,450.559C928.318,450.559 933.717,450.621 937.017,450.697C937.017,450.697 963.552,451.308 970.423,452.805C977.291,454.304 982.888,458.128 987.219,464.28C991.549,470.432 993.714,480.247 993.714,493.723C993.714,506.028 992.183,514.297 989.124,518.528C986.062,522.761 980.042,525.3 971.057,526.145C979.195,528.164 984.664,530.866 987.464,534.251C990.261,537.636 992.005,540.745 992.688,543.577C993.372,546.409 993.714,554.206 993.714,566.965L993.714,602.665C993.714,605.964 991.013,608.665 987.714,608.665L961.53,608.665C958.23,608.665 955.53,605.964 955.53,602.665L955.53,562.126C955.53,558.826 955.398,553.429 955.238,550.133C955.238,550.133 954.861,542.422 953.528,540.403C952.193,538.386 948.694,537.376 943.03,537.376L943.03,602.665C943.03,605.964 940.33,608.665 937.03,608.665L907.917,608.665C904.617,608.665 901.917,605.964 901.917,602.665L901.917,456.559Z" style="fill:url(#_Linear51);fill-rule:nonzero;"/>
                <path d="M1062.46,497.184C1062.46,493.884 1062.37,488.486 1062.26,485.187C1062.26,485.187 1062.06,479.123 1061.24,477.073C1060.43,475.022 1058.75,473.996 1056.21,473.996C1054.07,473.996 1052.42,474.827 1051.28,476.487C1050.14,478.147 1049.57,483.046 1049.57,491.184L1049.57,559.012C1049.57,562.312 1049.64,567.711 1049.72,571.01C1049.72,571.01 1049.95,579.856 1050.69,582.004C1051.44,584.153 1053.19,585.227 1055.92,585.227C1058.72,585.227 1060.51,583.991 1061.29,581.516C1062.07,579.042 1062.46,573.151 1062.46,563.84L1062.46,497.184ZM1103.58,537.137C1103.58,540.437 1103.54,545.837 1103.49,549.137C1103.49,549.137 1103.2,570.27 1102.45,576.877C1101.7,583.486 1099.36,589.524 1095.42,594.993C1091.48,600.461 1086.16,604.661 1079.45,607.59C1072.75,610.52 1064.94,611.985 1056.02,611.985C1047.55,611.985 1039.95,610.601 1033.21,607.834C1026.48,605.068 1021.06,600.917 1016.96,595.383C1012.85,589.851 1010.41,583.828 1009.63,577.317C1008.85,570.808 1008.46,559.413 1008.46,543.137L1008.46,522.086C1008.46,518.787 1008.5,513.387 1008.54,510.087C1008.54,510.087 1008.83,488.955 1009.58,482.346C1010.33,475.739 1012.67,469.7 1016.61,464.231C1020.55,458.762 1025.87,454.563 1032.58,451.633C1039.28,448.704 1047.1,447.239 1056.02,447.239C1064.48,447.239 1072.08,448.622 1078.82,451.389C1085.56,454.157 1090.98,458.308 1095.08,463.84C1099.18,469.374 1101.62,475.397 1102.4,481.907C1103.19,488.417 1103.58,499.811 1103.58,516.086L1103.58,537.137Z" style="fill:url(#_Linear52);fill-rule:nonzero;"/>
                <path d="M1206.02,492.411C1206.02,495.711 1203.32,498.411 1200.02,498.411L1173.83,498.411C1170.54,498.411 1167.83,495.774 1167.83,492.552C1167.83,489.329 1167.69,483.996 1167.51,480.701C1167.51,480.701 1167.35,477.742 1166.37,476.243C1165.39,474.746 1163.77,473.997 1161.49,473.997C1159.01,473.997 1157.14,475.007 1155.87,477.027C1154.6,479.048 1153.97,482.108 1153.97,486.213C1153.97,491.49 1154.68,495.465 1156.11,498.135C1157.47,500.807 1161.34,504.029 1167.73,507.801C1186.03,518.664 1197.55,527.578 1202.31,534.544C1207.06,541.511 1209.44,552.742 1209.44,568.235C1209.44,579.499 1208.12,587.8 1205.48,593.138C1202.84,598.476 1197.75,602.952 1190.2,606.565C1182.64,610.179 1173.86,611.985 1163.83,611.985C1152.83,611.985 1143.43,609.901 1135.66,605.735C1127.88,601.57 1122.78,596.263 1120.37,589.817C1117.96,583.372 1116.76,574.226 1116.76,562.376L1116.76,558.024C1116.76,554.724 1119.46,552.024 1122.76,552.024L1148.94,552.024C1152.24,552.024 1154.94,554.724 1154.94,558.024L1154.94,565.263C1154.94,568.562 1155.09,573.958 1155.27,577.253C1155.27,577.253 1155.48,580.996 1156.56,582.688C1157.63,584.382 1159.53,585.227 1162.27,585.227C1165,585.227 1167.04,584.153 1168.37,582.005C1169.7,579.856 1170.37,576.667 1170.37,572.434C1170.37,563.125 1169.1,557.038 1166.57,554.173C1163.96,551.308 1157.55,546.523 1147.33,539.817C1137.11,533.047 1130.33,528.132 1127.01,525.071C1123.69,522.012 1120.94,517.781 1118.76,512.376C1116.58,506.973 1115.49,500.071 1115.49,491.673C1115.49,479.563 1117.04,470.71 1120.13,465.11C1123.22,459.512 1128.22,455.134 1135.12,451.975C1142.02,448.818 1150.35,447.239 1160.12,447.239C1170.8,447.239 1179.89,448.965 1187.41,452.415C1194.93,455.867 1199.91,460.212 1202.36,465.452C1204.8,470.693 1206.02,479.597 1206.02,492.161L1206.02,492.411Z" style="fill:url(#_Linear53);fill-rule:nonzero;"/>
                <path d="M1299.14,450.559C1302.44,450.559 1305.14,453.259 1305.14,456.559L1305.14,476.2C1305.14,479.499 1302.44,482.2 1299.14,482.2L1286.73,482.2C1283.42,482.2 1280.73,484.9 1280.73,488.2L1280.73,602.664C1280.73,605.964 1278.03,608.664 1274.73,608.664L1245.61,608.664C1242.31,608.664 1239.61,605.964 1239.61,602.664L1239.61,488.2C1239.61,484.9 1236.91,482.2 1233.61,482.2L1221.3,482.2C1218,482.2 1215.3,479.499 1215.3,476.2L1215.3,456.559C1215.3,453.259 1218,450.559 1221.3,450.559L1299.14,450.559Z" style="fill:url(#_Linear54);fill-rule:nonzero;"/>
            </g>
        </g>
        <g transform="matrix(1.35822,0,0,1.35822,-468.046,-434.36)">
            <g>
                <g transform="matrix(1.2019,0,0,1.2019,-263.696,-164.049)">
                    <path d="M1390.15,833.69C1390.15,882.999 1350.18,922.971 1300.87,922.971C1251.56,922.971 1211.59,882.999 1211.59,833.69C1211.59,784.382 1251.56,744.41 1300.87,744.41C1350.18,744.41 1390.15,784.382 1390.15,833.69Z" style="fill:url(#_Radial55);fill-rule:nonzero;"/>
                </g>
                <g transform="matrix(1.52414,0,0,1.46851,-690.096,-333.748)">
                    <g transform="matrix(1,0,0,1,-28.1084,-14.6399)">
                        <path d="M1381.19,715.055C1396.55,718.084 1416.57,737.428 1415.67,780.79C1415.3,789.689 1404,813.294 1387.86,799.348C1373.98,786.876 1354.91,709.791 1381.19,715.055Z" style="fill:url(#_Radial56);fill-rule:nonzero;"/>
                    </g>
                    <g transform="matrix(1,0,0,1,-5.04913,5.58624)">
                        <path d="M1319.28,739.008C1319.28,739.008 1335.94,758.741 1348.36,739.008C1348.36,739.008 1353.69,734.29 1355.83,712.42C1355.83,712.42 1357.85,672.966 1348.02,660.099C1348.02,660.099 1335.27,639.983 1323.73,655.381C1312.26,669.671 1299.22,706.842 1319.28,739.008Z" style="fill:url(#_Radial57);fill-rule:nonzero;"/>
                    </g>
                    <g transform="matrix(1,0,0,1,12.8864,3.68999)">
                        <path d="M1265.88,674.25C1265.88,674.25 1268.73,657.097 1277.31,650.236C1277.31,650.236 1288.04,639.083 1297.08,650.661C1297.08,650.661 1302.51,650.236 1303.07,684.972C1303.07,684.972 1304.26,705.988 1300.54,714.564C1300.54,714.564 1297.89,737.296 1279.6,744.156C1279.6,744.156 1267.63,749.302 1256.75,736.867C1256.75,736.867 1252.62,729.147 1256.17,709.418C1256.17,709.418 1260.62,693.549 1265.88,674.25Z" style="fill:url(#_Radial58);fill-rule:nonzero;"/>
                    </g>
                    <g transform="matrix(1,0,0,1,30.2215,-11.8921)">
                        <path d="M1244.04,707.494C1253.14,711.856 1251.13,719.601 1242.74,753.338C1241.61,757.7 1218.52,803.942 1197.29,791.291C1192.33,788.244 1189.32,783.316 1196.4,764.308C1200.14,754.018 1219.92,695.515 1244.04,707.494Z" style="fill:url(#_Radial59);fill-rule:nonzero;"/>
                    </g>
                </g>
                <g transform="matrix(3.28353,0,0,2.40568,-2816.63,-854.44)">
                    <g transform="matrix(1,0,0,1,-96.5009,-51.4418)">
                        <path d="M1370.15,710.245C1370.15,710.245 1375.93,705.012 1381.91,708.079C1381.91,708.079 1384.76,710.137 1380.4,701.592C1380.4,701.592 1380.37,693.652 1368.88,682.138C1368.88,682.138 1364.91,677.767 1360.28,679.687C1360.28,679.687 1358.97,681.082 1360.57,681.658C1360.57,681.658 1364.7,683.413 1367.15,691.121C1367.15,691.121 1369.46,701.44 1368.84,706.524C1368.84,706.524 1367.32,709.125 1370.15,710.245Z" style="fill:url(#_Radial60);fill-rule:nonzero;"/>
                    </g>
                    <g transform="matrix(1,0,0,1,-70.6754,-12.752)">
                        <path d="M1329.14,643.372C1329.14,643.372 1336.18,640.585 1341.63,646.588C1341.63,646.588 1343.96,648.093 1341.57,637.585C1341.57,637.585 1339.41,629.219 1338.12,626.003C1338.12,626.003 1336.83,620.212 1331.76,614.854C1331.76,614.854 1325.64,609.064 1325.7,613.779C1325.7,613.779 1329.14,620.612 1329.26,623.646C1329.42,627.458 1329.09,637.323 1329.05,638.225C1328.99,639.793 1327.28,644.018 1329.14,643.372Z" style="fill:url(#_Radial61);fill-rule:nonzero;"/>
                    </g>
                    <g transform="matrix(1,0,0,1,-40.5717,-9.11541)">
                        <path d="M1281.97,639.296C1281.97,639.296 1287.16,635.009 1292.95,641.012C1292.95,641.012 1294.15,642.514 1293.75,635.866C1293.75,635.866 1293.81,629.861 1296.82,619.999C1296.82,619.999 1300.26,612.065 1301.74,610.349C1301.74,610.349 1303.81,607.563 1298.72,609.49C1298.72,609.49 1290.6,612.924 1287.37,624.718L1282.51,635.439C1282.51,635.439 1280.43,639.083 1281.97,639.296Z" style="fill:url(#_Radial62);fill-rule:nonzero;"/>
                    </g>
                    <g transform="matrix(1,0,0,1,-9.32889,-49.5481)">
                        <path d="M1238.06,698.314C1238.06,698.314 1243.84,696.829 1248.22,701.3C1248.22,701.3 1249.44,703.553 1249.68,694.916C1249.68,694.916 1251.17,686.983 1254.92,683.103C1254.92,683.103 1259.08,677.987 1261.14,675.763C1261.14,675.763 1264.54,672.058 1257.54,672.983C1257.54,672.983 1250.45,676.13 1246.15,681.459C1246.15,681.459 1239.09,692.709 1238.56,693.944C1238.56,693.944 1235.57,698.251 1238.06,698.314Z" style="fill:url(#_Radial63);fill-rule:nonzero;"/>
                    </g>
                </g>
            </g>
            <g>
                <g>
                    <path d="M1382.61,833.69C1386.77,882.999 1350.18,922.971 1300.87,922.971C1251.56,922.971 1215.6,882.999 1220.56,833.69C1225.51,784.382 1262.1,744.41 1302.29,744.41C1342.48,744.41 1378.44,784.382 1382.61,833.69" style="fill:url(#_Radial64);fill-rule:nonzero;"/>
                    <path d="M1327.39,856.135C1330.72,864.069 1325.42,874.144 1315.41,878.64C1305.31,883.136 1294.51,880.35 1291.43,872.418C1288.41,864.484 1294.06,854.408 1303.91,849.911C1313.66,845.416 1324.11,848.201 1327.39,856.135" style="fill:url(#_Radial65);fill-rule:nonzero;"/>
                    <g transform="matrix(0.886724,0,0,0.886724,143.498,93.3728)">
                        <path d="M1353.9,833.69C1355.55,865.528 1331.92,891.337 1301.12,891.337C1270.33,891.337 1247.11,865.528 1249.26,833.69C1251.42,801.853 1275.05,776.043 1302.04,776.043C1329.03,776.043 1352.25,801.853 1353.9,833.69" style="fill:url(#_Radial66);fill-rule:nonzero;stroke:rgb(146,197,235);stroke-width:9.96px;"/>
                    </g>
                </g>
                <g>
                    <g transform="matrix(1,0,0,1,-1.43511,-0.086769)">
                        <path d="M1268.13,674.25C1268.13,674.25 1270.34,657.097 1278.41,650.236C1278.41,650.236 1288.58,639.083 1297.48,650.661C1297.48,650.661 1302.72,650.236 1303.4,684.972C1303.4,684.972 1304.58,705.988 1301.17,714.564C1301.17,714.564 1298.87,737.296 1282.36,744.156C1282.36,744.156 1271.63,749.302 1261.48,736.867C1261.48,736.867 1257.49,729.147 1260.13,709.418C1260.13,709.418 1263.77,693.549 1268.13,674.25" style="fill:url(#_Radial67);fill-rule:nonzero;"/>
                    </g>
                    <g transform="matrix(1,0,0,1,1.36433,-0.297983)">
                        <path d="M1318.29,739.008C1318.29,739.008 1333.13,758.741 1344.67,739.008C1344.67,739.008 1349.63,734.29 1352.16,712.42C1352.16,712.42 1355.29,672.966 1346.33,660.099C1346.33,660.099 1334.54,639.983 1323.14,655.381C1312.08,669.671 1299.91,706.842 1318.29,739.008" style="fill:url(#_Radial68);fill-rule:nonzero;"/>
                    </g>
                    <g transform="matrix(0.995728,-0.0923391,0.0923391,0.995728,-55.5721,131.124)">
                        <path d="M1375.45,715.055C1389.44,718.084 1406.67,737.428 1403.52,780.79C1402.76,789.689 1391.82,813.294 1378.21,799.348C1366.38,786.876 1351.39,709.791 1375.45,715.055" style="fill:url(#_Radial69);fill-rule:nonzero;"/>
                    </g>
                    <g transform="matrix(0.995901,0.0904541,-0.0904541,0.995901,63.9136,-107.765)">
                        <path d="M1248.85,707.494C1257.41,711.856 1255.83,719.601 1249.32,753.338C1248.45,757.7 1229.65,803.942 1210.44,791.291C1205.9,788.244 1202.98,783.316 1208.23,764.308C1211.02,754.018 1225.86,695.515 1248.85,707.494" style="fill:url(#_Radial70);fill-rule:nonzero;"/>
                    </g>
                </g>
                <g>
                    <g transform="matrix(1,0,0,1,3.81327,-0.742104)">
                        <path d="M1365.46,710.245C1365.46,710.245 1371.01,705.012 1376.42,708.079C1376.42,708.079 1378.96,710.137 1375.32,701.592C1375.32,701.592 1375.65,693.652 1365.37,682.138C1365.37,682.138 1361.8,677.767 1357.35,679.687C1357.35,679.687 1356.07,681.082 1357.56,681.658C1357.56,681.658 1361.38,683.413 1363.39,691.121C1363.39,691.121 1365.15,701.44 1364.39,706.524C1364.39,706.524 1362.89,709.125 1365.46,710.245" style="fill:url(#_Radial71);fill-rule:nonzero;"/>
                    </g>
                    <path d="M1328.53,643.372C1328.53,643.372 1335.42,640.585 1340.56,646.588C1340.56,646.588 1342.78,648.093 1340.74,637.585C1340.74,637.585 1338.85,629.219 1337.67,626.003C1337.67,626.003 1336.54,620.212 1331.64,614.854C1331.64,614.854 1325.64,609.064 1325.62,613.779C1325.62,613.779 1328.92,620.612 1328.99,623.646C1329.07,627.458 1328.57,637.323 1328.53,638.225C1328.44,639.793 1326.71,644.018 1328.53,643.372" style="fill:url(#_Radial72);fill-rule:nonzero;"/>
                    <path d="M1282.67,639.296C1282.67,639.296 1287.65,635.009 1293.39,641.012C1293.39,641.012 1294.57,642.514 1294.1,635.866C1294.1,635.866 1294.08,629.861 1296.94,619.999C1296.94,619.999 1300.28,612.065 1301.75,610.349C1301.75,610.349 1303.8,607.563 1298.72,609.49C1298.72,609.49 1290.66,612.924 1287.67,624.718L1283.12,635.439C1283.12,635.439 1281.17,639.083 1282.67,639.296" style="fill:url(#_Radial73);fill-rule:nonzero;"/>
                    <g transform="matrix(1,0,0,1,-3.86921,-0.366485)">
                        <path d="M1242.91,698.314C1242.91,698.314 1248.23,696.829 1252.48,701.3C1252.48,701.3 1253.7,703.553 1253.6,694.916C1253.6,694.916 1254.69,686.983 1258.08,683.103C1258.08,683.103 1261.83,677.987 1263.7,675.763C1263.7,675.763 1266.8,672.058 1260.19,672.983C1260.19,672.983 1253.6,676.13 1249.76,681.459C1249.76,681.459 1243.62,692.709 1243.18,693.944C1243.18,693.944 1240.59,698.251 1242.91,698.314" style="fill:url(#_Radial74);fill-rule:nonzero;"/>
                    </g>
                </g>
            </g>
        </g>
    </g>
    <defs>
        <linearGradient id="_Linear1" x1="0" y1="0" x2="1" y2="0" gradientUnits="userSpaceOnUse" gradientTransform="matrix(0.677147,39.1685,-39.1685,0.677147,765.741,626.466)"><stop offset="0" style="stop-color:black;stop-opacity:1"/><stop offset="0.54" style="stop-color:black;stop-opacity:1"/><stop offset="1" style="stop-color:rgb(17,9,9);stop-opacity:1"/></linearGradient>
        <linearGradient id="_Linear2" x1="0" y1="0" x2="1" y2="0" gradientUnits="userSpaceOnUse" gradientTransform="matrix(0.677147,39.1685,-39.1685,0.677147,765.741,626.466)"><stop offset="0" style="stop-color:black;stop-opacity:1"/><stop offset="0.54" style="stop-color:black;stop-opacity:1"/><stop offset="1" style="stop-color:rgb(17,9,9);stop-opacity:1"/></linearGradient>
        <linearGradient id="_Linear3" x1="0" y1="0" x2="1" y2="0" gradientUnits="userSpaceOnUse" gradientTransform="matrix(0.677147,39.1685,-39.1685,0.677147,765.741,626.466)"><stop offset="0" style="stop-color:black;stop-opacity:1"/><stop offset="0.54" style="stop-color:black;stop-opacity:1"/><stop offset="1" style="stop-color:rgb(17,9,9);stop-opacity:1"/></linearGradient>
        <linearGradient id="_Linear4" x1="0" y1="0" x2="1" y2="0" gradientUnits="userSpaceOnUse" gradientTransform="matrix(0.677147,39.1685,-39.1685,0.677147,765.741,626.466)"><stop offset="0" style="stop-color:black;stop-opacity:1"/><stop offset="0.54" style="stop-color:black;stop-opacity:1"/><stop offset="1" style="stop-color:rgb(17,9,9);stop-opacity:1"/></linearGradient>
        <linearGradient id="_Linear5" x1="0" y1="0" x2="1" y2="0" gradientUnits="userSpaceOnUse" gradientTransform="matrix(0.677147,39.1685,-39.1685,0.677147,765.741,626.466)"><stop offset="0" style="stop-color:black;stop-opacity:1"/><stop offset="0.54" style="stop-color:black;stop-opacity:1"/><stop offset="1" style="stop-color:rgb(17,9,9);stop-opacity:1"/></linearGradient>
        <linearGradient id="_Linear6" x1="0" y1="0" x2="1" y2="0" gradientUnits="userSpaceOnUse" gradientTransform="matrix(0.677147,39.1685,-39.1685,0.677147,765.741,626.466)"><stop offset="0" style="stop-color:black;stop-opacity:1"/><stop offset="0.54" style="stop-color:black;stop-opacity:1"/><stop offset="1" style="stop-color:rgb(17,9,9);stop-opacity:1"/></linearGradient>
        <linearGradient id="_Linear7" x1="0" y1="0" x2="1" y2="0" gradientUnits="userSpaceOnUse" gradientTransform="matrix(0.677147,39.1685,-39.1685,0.677147,765.741,626.466)"><stop offset="0" style="stop-color:black;stop-opacity:1"/><stop offset="0.54" style="stop-color:black;stop-opacity:1"/><stop offset="1" style="stop-color:rgb(17,9,9);stop-opacity:1"/></linearGradient>
        <linearGradient id="_Linear8" x1="0" y1="0" x2="1" y2="0" gradientUnits="userSpaceOnUse" gradientTransform="matrix(0.677147,39.1685,-39.1685,0.677147,765.741,626.466)"><stop offset="0" style="stop-color:black;stop-opacity:1"/><stop offset="0.54" style="stop-color:black;stop-opacity:1"/><stop offset="1" style="stop-color:rgb(17,9,9);stop-opacity:1"/></linearGradient>
        <linearGradient id="_Linear9" x1="0" y1="0" x2="1" y2="0" gradientUnits="userSpaceOnUse" gradientTransform="matrix(0.677147,39.1685,-39.1685,0.677147,765.741,626.466)"><stop offset="0" style="stop-color:black;stop-opacity:1"/><stop offset="0.54" style="stop-color:black;stop-opacity:1"/><stop offset="1" style="stop-color:rgb(17,9,9);stop-opacity:1"/></linearGradient>
        <linearGradient id="_Linear10" x1="0" y1="0" x2="1" y2="0" gradientUnits="userSpaceOnUse" gradientTransform="matrix(0.677147,39.1685,-39.1685,0.677147,765.741,626.466)"><stop offset="0" style="stop-color:black;stop-opacity:1"/><stop offset="0.54" style="stop-color:black;stop-opacity:1"/><stop offset="1" style="stop-color:rgb(17,9,9);stop-opacity:1"/></linearGradient>
        <linearGradient id="_Linear11" x1="0" y1="0" x2="1" y2="0" gradientUnits="userSpaceOnUse" gradientTransform="matrix(0.677147,39.1685,-39.1685,0.677147,765.741,626.466)"><stop offset="0" style="stop-color:black;stop-opacity:1"/><stop offset="0.54" style="stop-color:black;stop-opacity:1"/><stop offset="1" style="stop-color:rgb(17,9,9);stop-opacity:1"/></linearGradient>
        <linearGradient id="_Linear12" x1="0" y1="0" x2="1" y2="0" gradientUnits="userSpaceOnUse" gradientTransform="matrix(0.677147,39.1685,-39.1685,0.677147,765.741,626.466)"><stop offset="0" style="stop-color:black;stop-opacity:1"/><stop offset="0.54" style="stop-color:black;stop-opacity:1"/><stop offset="1" style="stop-color:rgb(17,9,9);stop-opacity:1"/></linearGradient>
        <linearGradient id="_Linear13" x1="0" y1="0" x2="1" y2="0" gradientUnits="userSpaceOnUse" gradientTransform="matrix(0.677147,39.1685,-39.1685,0.677147,765.741,626.466)"><stop offset="0" style="stop-color:black;stop-opacity:1"/><stop offset="0.54" style="stop-color:black;stop-opacity:1"/><stop offset="1" style="stop-color:rgb(17,9,9);stop-opacity:1"/></linearGradient>
        <linearGradient id="_Linear14" x1="0" y1="0" x2="1" y2="0" gradientUnits="userSpaceOnUse" gradientTransform="matrix(0.677147,39.1685,-39.1685,0.677147,765.741,626.466)"><stop offset="0" style="stop-color:black;stop-opacity:1"/><stop offset="0.54" style="stop-color:black;stop-opacity:1"/><stop offset="1" style="stop-color:rgb(17,9,9);stop-opacity:1"/></linearGradient>
        <linearGradient id="_Linear15" x1="0" y1="0" x2="1" y2="0" gradientUnits="userSpaceOnUse" gradientTransform="matrix(0.677147,39.1685,-39.1685,0.677147,765.741,626.466)"><stop offset="0" style="stop-color:black;stop-opacity:1"/><stop offset="0.54" style="stop-color:black;stop-opacity:1"/><stop offset="1" style="stop-color:rgb(17,9,9);stop-opacity:1"/></linearGradient>
        <linearGradient id="_Linear16" x1="0" y1="0" x2="1" y2="0" gradientUnits="userSpaceOnUse" gradientTransform="matrix(0.677147,39.1685,-39.1685,0.677147,765.741,626.466)"><stop offset="0" style="stop-color:black;stop-opacity:1"/><stop offset="0.54" style="stop-color:black;stop-opacity:1"/><stop offset="1" style="stop-color:rgb(17,9,9);stop-opacity:1"/></linearGradient>
        <linearGradient id="_Linear17" x1="0" y1="0" x2="1" y2="0" gradientUnits="userSpaceOnUse" gradientTransform="matrix(0.677147,39.1685,-39.1685,0.677147,765.741,626.466)"><stop offset="0" style="stop-color:black;stop-opacity:1"/><stop offset="0.54" style="stop-color:black;stop-opacity:1"/><stop offset="1" style="stop-color:rgb(17,9,9);stop-opacity:1"/></linearGradient>
        <linearGradient id="_Linear18" x1="0" y1="0" x2="1" y2="0" gradientUnits="userSpaceOnUse" gradientTransform="matrix(0.677147,39.1685,-39.1685,0.677147,765.741,626.466)"><stop offset="0" style="stop-color:black;stop-opacity:1"/><stop offset="0.54" style="stop-color:black;stop-opacity:1"/><stop offset="1" style="stop-color:rgb(17,9,9);stop-opacity:1"/></linearGradient>
        <linearGradient id="_Linear19" x1="0" y1="0" x2="1" y2="0" gradientUnits="userSpaceOnUse" gradientTransform="matrix(-0.238944,676.582,-676.582,-0.238944,752.504,290.045)"><stop offset="0" style="stop-color:rgb(14,0,0);stop-opacity:1"/><stop offset="0.53" style="stop-color:white;stop-opacity:1"/><stop offset="1" style="stop-color:black;stop-opacity:1"/></linearGradient>
        <linearGradient id="_Linear20" x1="0" y1="0" x2="1" y2="0" gradientUnits="userSpaceOnUse" gradientTransform="matrix(-0.238944,676.582,-676.582,-0.238944,752.504,290.045)"><stop offset="0" style="stop-color:rgb(14,0,0);stop-opacity:1"/><stop offset="0.53" style="stop-color:white;stop-opacity:1"/><stop offset="1" style="stop-color:black;stop-opacity:1"/></linearGradient>
        <linearGradient id="_Linear21" x1="0" y1="0" x2="1" y2="0" gradientUnits="userSpaceOnUse" gradientTransform="matrix(-0.238944,676.582,-676.582,-0.238944,752.504,290.045)"><stop offset="0" style="stop-color:rgb(14,0,0);stop-opacity:1"/><stop offset="0.53" style="stop-color:white;stop-opacity:1"/><stop offset="1" style="stop-color:black;stop-opacity:1"/></linearGradient>
        <linearGradient id="_Linear22" x1="0" y1="0" x2="1" y2="0" gradientUnits="userSpaceOnUse" gradientTransform="matrix(-0.238944,676.582,-676.582,-0.238944,752.504,290.045)"><stop offset="0" style="stop-color:rgb(14,0,0);stop-opacity:1"/><stop offset="0.53" style="stop-color:white;stop-opacity:1"/><stop offset="1" style="stop-color:black;stop-opacity:1"/></linearGradient>
        <linearGradient id="_Linear23" x1="0" y1="0" x2="1" y2="0" gradientUnits="userSpaceOnUse" gradientTransform="matrix(-0.238944,676.582,-676.582,-0.238944,752.504,290.045)"><stop offset="0" style="stop-color:rgb(14,0,0);stop-opacity:1"/><stop offset="0.53" style="stop-color:white;stop-opacity:1"/><stop offset="1" style="stop-color:black;stop-opacity:1"/></linearGradient>
        <linearGradient id="_Linear24" x1="0" y1="0" x2="1" y2="0" gradientUnits="userSpaceOnUse" gradientTransform="matrix(-0.238944,676.582,-676.582,-0.238944,752.504,290.045)"><stop offset="0" style="stop-color:rgb(14,0,0);stop-opacity:1"/><stop offset="0.53" style="stop-color:white;stop-opacity:1"/><stop offset="1" style="stop-color:black;stop-opacity:1"/></linearGradient>
        <linearGradient id="_Linear25" x1="0" y1="0" x2="1" y2="0" gradientUnits="userSpaceOnUse" gradientTransform="matrix(-0.238944,676.582,-676.582,-0.238944,752.504,290.045)"><stop offset="0" style="stop-color:rgb(14,0,0);stop-opacity:1"/><stop offset="0.53" style="stop-color:white;stop-opacity:1"/><stop offset="1" style="stop-color:black;stop-opacity:1"/></linearGradient>
        <linearGradient id="_Linear26" x1="0" y1="0" x2="1" y2="0" gradientUnits="userSpaceOnUse" gradientTransform="matrix(-0.238944,676.582,-676.582,-0.238944,752.504,290.045)"><stop offset="0" style="stop-color:rgb(14,0,0);stop-opacity:1"/><stop offset="0.53" style="stop-color:white;stop-opacity:1"/><stop offset="1" style="stop-color:black;stop-opacity:1"/></linearGradient>
        <linearGradient id="_Linear27" x1="0" y1="0" x2="1" y2="0" gradientUnits="userSpaceOnUse" gradientTransform="matrix(-0.238944,676.582,-676.582,-0.238944,752.504,290.045)"><stop offset="0" style="stop-color:rgb(14,0,0);stop-opacity:1"/><stop offset="0.53" style="stop-color:white;stop-opacity:1"/><stop offset="1" style="stop-color:black;stop-opacity:1"/></linearGradient>
        <linearGradient id="_Linear28" x1="0" y1="0" x2="1" y2="0" gradientUnits="userSpaceOnUse" gradientTransform="matrix(-0.238944,676.582,-676.582,-0.238944,752.504,290.045)"><stop offset="0" style="stop-color:rgb(14,0,0);stop-opacity:1"/><stop offset="0.53" style="stop-color:white;stop-opacity:1"/><stop offset="1" style="stop-color:black;stop-opacity:1"/></linearGradient>
        <linearGradient id="_Linear29" x1="0" y1="0" x2="1" y2="0" gradientUnits="userSpaceOnUse" gradientTransform="matrix(-0.238944,676.582,-676.582,-0.238944,752.504,290.045)"><stop offset="0" style="stop-color:rgb(14,0,0);stop-opacity:1"/><stop offset="0.53" style="stop-color:white;stop-opacity:1"/><stop offset="1" style="stop-color:black;stop-opacity:1"/></linearGradient>
        <linearGradient id="_Linear30" x1="0" y1="0" x2="1" y2="0" gradientUnits="userSpaceOnUse" gradientTransform="matrix(-0.238944,676.582,-676.582,-0.238944,752.504,290.045)"><stop offset="0" style="stop-color:rgb(14,0,0);stop-opacity:1"/><stop offset="0.53" style="stop-color:white;stop-opacity:1"/><stop offset="1" style="stop-color:black;stop-opacity:1"/></linearGradient>
        <linearGradient id="_Linear31" x1="0" y1="0" x2="1" y2="0" gradientUnits="userSpaceOnUse" gradientTransform="matrix(-0.238944,676.582,-676.582,-0.238944,752.504,290.045)"><stop offset="0" style="stop-color:rgb(14,0,0);stop-opacity:1"/><stop offset="0.53" style="stop-color:white;stop-opacity:1"/><stop offset="1" style="stop-color:black;stop-opacity:1"/></linearGradient>
        <linearGradient id="_Linear32" x1="0" y1="0" x2="1" y2="0" gradientUnits="userSpaceOnUse" gradientTransform="matrix(-0.238944,676.582,-676.582,-0.238944,752.504,290.045)"><stop offset="0" style="stop-color:rgb(14,0,0);stop-opacity:1"/><stop offset="0.53" style="stop-color:white;stop-opacity:1"/><stop offset="1" style="stop-color:black;stop-opacity:1"/></linearGradient>
        <linearGradient id="_Linear33" x1="0" y1="0" x2="1" y2="0" gradientUnits="userSpaceOnUse" gradientTransform="matrix(-0.238944,676.582,-676.582,-0.238944,752.504,290.045)"><stop offset="0" style="stop-color:rgb(14,0,0);stop-opacity:1"/><stop offset="0.53" style="stop-color:white;stop-opacity:1"/><stop offset="1" style="stop-color:black;stop-opacity:1"/></linearGradient>
        <linearGradient id="_Linear34" x1="0" y1="0" x2="1" y2="0" gradientUnits="userSpaceOnUse" gradientTransform="matrix(-0.238944,676.582,-676.582,-0.238944,752.504,290.045)"><stop offset="0" style="stop-color:rgb(14,0,0);stop-opacity:1"/><stop offset="0.53" style="stop-color:white;stop-opacity:1"/><stop offset="1" style="stop-color:black;stop-opacity:1"/></linearGradient>
        <linearGradient id="_Linear35" x1="0" y1="0" x2="1" y2="0" gradientUnits="userSpaceOnUse" gradientTransform="matrix(-0.238944,676.582,-676.582,-0.238944,752.504,290.045)"><stop offset="0" style="stop-color:rgb(14,0,0);stop-opacity:1"/><stop offset="0.53" style="stop-color:white;stop-opacity:1"/><stop offset="1" style="stop-color:black;stop-opacity:1"/></linearGradient>
        <linearGradient id="_Linear36" x1="0" y1="0" x2="1" y2="0" gradientUnits="userSpaceOnUse" gradientTransform="matrix(-0.238944,676.582,-676.582,-0.238944,752.504,290.045)"><stop offset="0" style="stop-color:rgb(14,0,0);stop-opacity:1"/><stop offset="0.53" style="stop-color:white;stop-opacity:1"/><stop offset="1" style="stop-color:black;stop-opacity:1"/></linearGradient>
        <linearGradient id="_Linear37" x1="0" y1="0" x2="1" y2="0" gradientUnits="userSpaceOnUse" gradientTransform="matrix(-0.0768183,67.3064,-67.3064,-0.0768183,771.53,488.025)"><stop offset="0" style="stop-color:black;stop-opacity:1"/><stop offset="0.52" style="stop-color:black;stop-opacity:1"/><stop offset="1" style="stop-color:rgb(8,0,0);stop-opacity:1"/></linearGradient>
        <linearGradient id="_Linear38" x1="0" y1="0" x2="1" y2="0" gradientUnits="userSpaceOnUse" gradientTransform="matrix(-0.0768183,67.3064,-67.3064,-0.0768183,771.53,488.025)"><stop offset="0" style="stop-color:black;stop-opacity:1"/><stop offset="0.52" style="stop-color:black;stop-opacity:1"/><stop offset="1" style="stop-color:rgb(8,0,0);stop-opacity:1"/></linearGradient>
        <linearGradient id="_Linear39" x1="0" y1="0" x2="1" y2="0" gradientUnits="userSpaceOnUse" gradientTransform="matrix(-0.0768183,67.3064,-67.3064,-0.0768183,771.53,488.025)"><stop offset="0" style="stop-color:black;stop-opacity:1"/><stop offset="0.52" style="stop-color:black;stop-opacity:1"/><stop offset="1" style="stop-color:rgb(8,0,0);stop-opacity:1"/></linearGradient>
        <linearGradient id="_Linear40" x1="0" y1="0" x2="1" y2="0" gradientUnits="userSpaceOnUse" gradientTransform="matrix(-0.0768183,67.3064,-67.3064,-0.0768183,771.53,488.025)"><stop offset="0" style="stop-color:black;stop-opacity:1"/><stop offset="0.52" style="stop-color:black;stop-opacity:1"/><stop offset="1" style="stop-color:rgb(8,0,0);stop-opacity:1"/></linearGradient>
        <linearGradient id="_Linear41" x1="0" y1="0" x2="1" y2="0" gradientUnits="userSpaceOnUse" gradientTransform="matrix(-0.0768183,67.3064,-67.3064,-0.0768183,771.53,488.025)"><stop offset="0" style="stop-color:black;stop-opacity:1"/><stop offset="0.52" style="stop-color:black;stop-opacity:1"/><stop offset="1" style="stop-color:rgb(8,0,0);stop-opacity:1"/></linearGradient>
        <linearGradient id="_Linear42" x1="0" y1="0" x2="1" y2="0" gradientUnits="userSpaceOnUse" gradientTransform="matrix(-0.0768183,67.3064,-67.3064,-0.0768183,771.53,488.025)"><stop offset="0" style="stop-color:black;stop-opacity:1"/><stop offset="0.52" style="stop-color:black;stop-opacity:1"/><stop offset="1" style="stop-color:rgb(8,0,0);stop-opacity:1"/></linearGradient>
        <linearGradient id="_Linear43" x1="0" y1="0" x2="1" y2="0" gradientUnits="userSpaceOnUse" gradientTransform="matrix(-0.0768183,67.3064,-67.3064,-0.0768183,771.53,488.025)"><stop offset="0" style="stop-color:black;stop-opacity:1"/><stop offset="0.52" style="stop-color:black;stop-opacity:1"/><stop offset="1" style="stop-color:rgb(8,0,0);stop-opacity:1"/></linearGradient>
        <linearGradient id="_Linear44" x1="0" y1="0" x2="1" y2="0" gradientUnits="userSpaceOnUse" gradientTransform="matrix(-0.0768183,67.3064,-67.3064,-0.0768183,771.53,488.025)"><stop offset="0" style="stop-color:black;stop-opacity:1"/><stop offset="0.52" style="stop-color:black;stop-opacity:1"/><stop offset="1" style="stop-color:rgb(8,0,0);stop-opacity:1"/></linearGradient>
        <linearGradient id="_Linear45" x1="0" y1="0" x2="1" y2="0" gradientUnits="userSpaceOnUse" gradientTransform="matrix(-0.0768183,67.3064,-67.3064,-0.0768183,771.53,488.025)"><stop offset="0" style="stop-color:black;stop-opacity:1"/><stop offset="0.52" style="stop-color:black;stop-opacity:1"/><stop offset="1" style="stop-color:rgb(8,0,0);stop-opacity:1"/></linearGradient>
        <linearGradient id="_Linear46" x1="0" y1="0" x2="1" y2="0" gradientUnits="userSpaceOnUse" gradientTransform="matrix(-6.43065,1288.91,-1288.91,-6.43065,744.1,-97.6985)"><stop offset="0" style="stop-color:black;stop-opacity:1"/><stop offset="0.49" style="stop-color:white;stop-opacity:1"/><stop offset="1" style="stop-color:rgb(7,0,0);stop-opacity:1"/></linearGradient>
        <linearGradient id="_Linear47" x1="0" y1="0" x2="1" y2="0" gradientUnits="userSpaceOnUse" gradientTransform="matrix(-6.43065,1288.91,-1288.91,-6.43065,744.1,-97.6985)"><stop offset="0" style="stop-color:black;stop-opacity:1"/><stop offset="0.49" style="stop-color:white;stop-opacity:1"/><stop offset="1" style="stop-color:rgb(7,0,0);stop-opacity:1"/></linearGradient>
        <linearGradient id="_Linear48" x1="0" y1="0" x2="1" y2="0" gradientUnits="userSpaceOnUse" gradientTransform="matrix(-6.43065,1288.91,-1288.91,-6.43065,744.1,-97.6985)"><stop offset="0" style="stop-color:black;stop-opacity:1"/><stop offset="0.49" style="stop-color:white;stop-opacity:1"/><stop offset="1" style="stop-color:rgb(7,0,0);stop-opacity:1"/></linearGradient>
        <linearGradient id="_Linear49" x1="0" y1="0" x2="1" y2="0" gradientUnits="userSpaceOnUse" gradientTransform="matrix(-6.43065,1288.91,-1288.91,-6.43065,744.1,-97.6985)"><stop offset="0" style="stop-color:black;stop-opacity:1"/><stop offset="0.49" style="stop-color:white;stop-opacity:1"/><stop offset="1" style="stop-color:rgb(7,0,0);stop-opacity:1"/></linearGradient>
        <linearGradient id="_Linear50" x1="0" y1="0" x2="1" y2="0" gradientUnits="userSpaceOnUse" gradientTransform="matrix(-6.43065,1288.91,-1288.91,-6.43065,744.1,-97.6985)"><stop offset="0" style="stop-color:black;stop-opacity:1"/><stop offset="0.49" style="stop-color:white;stop-opacity:1"/><stop offset="1" style="stop-color:rgb(7,0,0);stop-opacity:1"/></linearGradient>
        <linearGradient id="_Linear51" x1="0" y1="0" x2="1" y2="0" gradientUnits="userSpaceOnUse" gradientTransform="matrix(-6.43065,1288.91,-1288.91,-6.43065,744.1,-97.6985)"><stop offset="0" style="stop-color:black;stop-opacity:1"/><stop offset="0.49" style="stop-color:white;stop-opacity:1"/><stop offset="1" style="stop-color:rgb(7,0,0);stop-opacity:1"/></linearGradient>
        <linearGradient id="_Linear52" x1="0" y1="0" x2="1" y2="0" gradientUnits="userSpaceOnUse" gradientTransform="matrix(-6.43065,1288.91,-1288.91,-6.43065,744.1,-97.6985)"><stop offset="0" style="stop-color:black;stop-opacity:1"/><stop offset="0.49" style="stop-color:white;stop-opacity:1"/><stop offset="1" style="stop-color:rgb(7,0,0);stop-opacity:1"/></linearGradient>
        <linearGradient id="_Linear53" x1="0" y1="0" x2="1" y2="0" gradientUnits="userSpaceOnUse" gradientTransform="matrix(-6.43065,1288.91,-1288.91,-6.43065,744.1,-97.6985)"><stop offset="0" style="stop-color:black;stop-opacity:1"/><stop offset="0.49" style="stop-color:white;stop-opacity:1"/><stop offset="1" style="stop-color:rgb(7,0,0);stop-opacity:1"/></linearGradient>
        <linearGradient id="_Linear54" x1="0" y1="0" x2="1" y2="0" gradientUnits="userSpaceOnUse" gradientTransform="matrix(-6.43065,1288.91,-1288.91,-6.43065,744.1,-97.6985)"><stop offset="0" style="stop-color:black;stop-opacity:1"/><stop offset="0.49" style="stop-color:white;stop-opacity:1"/><stop offset="1" style="stop-color:rgb(7,0,0);stop-opacity:1"/></linearGradient>
        <radialGradient id="_Radial55" cx="0" cy="0" r="1" gradientUnits="userSpaceOnUse" gradientTransform="matrix(49.713,105.966,-105.966,49.713,1300.73,781.843)"><stop offset="0" style="stop-color:black;stop-opacity:1"/><stop offset="1" style="stop-color:rgb(6,0,0);stop-opacity:1"/></radialGradient>
        <radialGradient id="_Radial56" cx="0" cy="0" r="1" gradientUnits="userSpaceOnUse" gradientTransform="matrix(39.2023,86.7273,-83.5615,40.6875,1333.59,770.096)"><stop offset="0" style="stop-color:black;stop-opacity:1"/><stop offset="1" style="stop-color:rgb(6,0,0);stop-opacity:1"/></radialGradient>
        <radialGradient id="_Radial57" cx="0" cy="0" r="1" gradientUnits="userSpaceOnUse" gradientTransform="matrix(39.2023,86.7273,-83.5615,40.6875,1310.54,749.87)"><stop offset="0" style="stop-color:black;stop-opacity:1"/><stop offset="1" style="stop-color:rgb(6,0,0);stop-opacity:1"/></radialGradient>
        <radialGradient id="_Radial58" cx="0" cy="0" r="1" gradientUnits="userSpaceOnUse" gradientTransform="matrix(39.2023,86.7273,-83.5615,40.6875,1292.6,751.766)"><stop offset="0" style="stop-color:black;stop-opacity:1"/><stop offset="1" style="stop-color:rgb(6,0,0);stop-opacity:1"/></radialGradient>
        <radialGradient id="_Radial59" cx="0" cy="0" r="1" gradientUnits="userSpaceOnUse" gradientTransform="matrix(39.2023,86.7273,-83.5615,40.6875,1275.26,767.348)"><stop offset="0" style="stop-color:black;stop-opacity:1"/><stop offset="1" style="stop-color:rgb(6,0,0);stop-opacity:1"/></radialGradient>
        <radialGradient id="_Radial60" cx="0" cy="0" r="1" gradientUnits="userSpaceOnUse" gradientTransform="matrix(18.1968,52.9411,-38.7874,24.837,1350.12,729.039)"><stop offset="0" style="stop-color:black;stop-opacity:1"/><stop offset="1" style="stop-color:rgb(6,0,0);stop-opacity:1"/></radialGradient>
        <radialGradient id="_Radial61" cx="0" cy="0" r="1" gradientUnits="userSpaceOnUse" gradientTransform="matrix(18.1968,52.9411,-38.7874,24.837,1324.29,690.349)"><stop offset="0" style="stop-color:black;stop-opacity:1"/><stop offset="1" style="stop-color:rgb(6,0,0);stop-opacity:1"/></radialGradient>
        <radialGradient id="_Radial62" cx="0" cy="0" r="1" gradientUnits="userSpaceOnUse" gradientTransform="matrix(18.1968,52.9411,-38.7874,24.837,1294.19,686.713)"><stop offset="0" style="stop-color:black;stop-opacity:1"/><stop offset="1" style="stop-color:rgb(6,0,0);stop-opacity:1"/></radialGradient>
        <radialGradient id="_Radial63" cx="0" cy="0" r="1" gradientUnits="userSpaceOnUse" gradientTransform="matrix(18.1968,52.9411,-38.7874,24.837,1262.94,727.145)"><stop offset="0" style="stop-color:black;stop-opacity:1"/><stop offset="1" style="stop-color:rgb(6,0,0);stop-opacity:1"/></radialGradient>
        <radialGradient id="_Radial64" cx="0" cy="0" r="1" gradientUnits="userSpaceOnUse" gradientTransform="matrix(29.3537,39.7416,-39.7416,29.3537,1300.9,831.561)"><stop offset="0" style="stop-color:rgb(146,197,235);stop-opacity:1"/><stop offset="1" style="stop-color:rgb(55,119,188);stop-opacity:1"/></radialGradient>
        <radialGradient id="_Radial65" cx="0" cy="0" r="1" gradientUnits="userSpaceOnUse" gradientTransform="matrix(29.3537,39.7416,-39.7416,29.3537,1300.9,831.561)"><stop offset="0" style="stop-color:rgb(146,197,235);stop-opacity:1"/><stop offset="1" style="stop-color:rgb(55,119,188);stop-opacity:1"/></radialGradient>
        <radialGradient id="_Radial66" cx="0" cy="0" r="1" gradientUnits="userSpaceOnUse" gradientTransform="matrix(33.1036,44.8184,-44.8184,33.1036,1305.26,832.49)"><stop offset="0" style="stop-color:rgb(146,197,235);stop-opacity:1"/><stop offset="1" style="stop-color:rgb(55,119,188);stop-opacity:1"/></radialGradient>
        <radialGradient id="_Radial67" cx="0" cy="0" r="1" gradientUnits="userSpaceOnUse" gradientTransform="matrix(29.3537,39.7416,-39.7416,29.3537,1302.34,831.648)"><stop offset="0" style="stop-color:rgb(146,197,235);stop-opacity:1"/><stop offset="1" style="stop-color:rgb(55,119,188);stop-opacity:1"/></radialGradient>
        <radialGradient id="_Radial68" cx="0" cy="0" r="1" gradientUnits="userSpaceOnUse" gradientTransform="matrix(29.3537,39.7416,-39.7416,29.3537,1299.54,831.859)"><stop offset="0" style="stop-color:rgb(146,197,235);stop-opacity:1"/><stop offset="1" style="stop-color:rgb(55,119,188);stop-opacity:1"/></radialGradient>
        <radialGradient id="_Radial69" cx="0" cy="0" r="1" gradientUnits="userSpaceOnUse" gradientTransform="matrix(25.5586,42.2823,-42.2823,25.5586,1286,822.7)"><stop offset="0" style="stop-color:rgb(146,197,235);stop-opacity:1"/><stop offset="1" style="stop-color:rgb(55,119,188);stop-opacity:1"/></radialGradient>
        <radialGradient id="_Radial70" cx="0" cy="0" r="1" gradientUnits="userSpaceOnUse" gradientTransform="matrix(32.8282,36.9235,-36.9235,32.8282,1316.88,823.585)"><stop offset="0" style="stop-color:rgb(146,197,235);stop-opacity:1"/><stop offset="1" style="stop-color:rgb(55,119,188);stop-opacity:1"/></radialGradient>
        <radialGradient id="_Radial71" cx="0" cy="0" r="1" gradientUnits="userSpaceOnUse" gradientTransform="matrix(29.3537,39.7416,-39.7416,29.3537,1297.09,832.303)"><stop offset="0" style="stop-color:rgb(146,197,235);stop-opacity:1"/><stop offset="1" style="stop-color:rgb(55,119,188);stop-opacity:1"/></radialGradient>
        <radialGradient id="_Radial72" cx="0" cy="0" r="1" gradientUnits="userSpaceOnUse" gradientTransform="matrix(29.3537,39.7416,-39.7416,29.3537,1300.9,831.561)"><stop offset="0" style="stop-color:rgb(146,197,235);stop-opacity:1"/><stop offset="1" style="stop-color:rgb(55,119,188);stop-opacity:1"/></radialGradient>
        <radialGradient id="_Radial73" cx="0" cy="0" r="1" gradientUnits="userSpaceOnUse" gradientTransform="matrix(29.3537,39.7416,-39.7416,29.3537,1300.9,831.561)"><stop offset="0" style="stop-color:rgb(146,197,235);stop-opacity:1"/><stop offset="1" style="stop-color:rgb(55,119,188);stop-opacity:1"/></radialGradient>
        <radialGradient id="_Radial74" cx="0" cy="0" r="1" gradientUnits="userSpaceOnUse" gradientTransform="matrix(29.3537,39.7416,-39.7416,29.3537,1304.77,831.928)"><stop offset="0" style="stop-color:rgb(146,197,235);stop-opacity:1"/><stop offset="1" style="stop-color:rgb(55,119,188);stop-opacity:1"/></radialGradient>
    </defs>
</svg>
