<?xml version="1.0" encoding="UTF-8" standalone="no"?>
<!DOCTYPE svg PUBLIC "-//W3C//DTD SVG 1.1//EN" "http://www.w3.org/Graphics/SVG/1.1/DTD/svg11.dtd">
<svg width="100%" height="100%" viewBox="0 0 128 128" version="1.1" xmlns="http://www.w3.org/2000/svg" xmlns:xlink="http://www.w3.org/1999/xlink" xml:space="preserve" xmlns:serif="http://www.serif.com/" style="fill-rule:evenodd;clip-rule:evenodd;stroke-linejoin:round;stroke-miterlimit:2;">
    <path d="M76.397,55.676C73.66,55.676 71.622,57.02 71.622,60.255C71.622,62.692 72.965,64.384 76.25,64.384C79.034,64.384 80.926,62.743 80.926,60.154C80.926,57.22 79.233,55.676 76.397,55.676ZM70.926,78.516C70.278,79.311 69.632,80.156 69.632,81.153C69.632,83.142 72.168,83.74 75.653,83.74C78.538,83.74 82.469,83.538 82.469,80.855C82.469,79.26 80.577,79.162 78.188,79.012L70.926,78.516ZM85.651,55.826C86.546,56.971 87.493,58.563 87.493,60.852C87.493,66.374 83.164,69.608 76.896,69.608C75.302,69.608 73.859,69.41 72.964,69.161L71.322,71.798L76.197,72.095C84.805,72.644 89.879,72.893 89.879,79.508C89.879,85.231 84.855,88.463 76.197,88.463C67.191,88.463 63.759,86.174 63.759,82.245C63.759,80.005 64.755,78.814 66.496,77.169C64.853,76.475 64.307,75.232 64.307,73.888C64.307,72.793 64.854,71.798 65.75,70.852C66.646,69.908 67.641,68.961 68.834,67.867C66.396,66.673 64.556,64.086 64.556,60.403C64.556,54.682 68.337,50.753 75.949,50.753C78.089,50.753 79.384,50.95 80.527,51.251L90.23,51.251L90.23,55.479L85.651,55.826ZM98.983,46.786C96.146,46.786 94.504,45.143 94.504,42.306C94.504,39.473 96.146,37.929 98.983,37.929C101.869,37.929 103.51,39.472 103.51,42.306C103.511,45.143 101.869,46.786 98.983,46.786ZM92.563,76.687L92.563,72.757L95.102,72.409C95.798,72.309 95.897,72.16 95.897,71.412L95.897,56.785C95.897,56.239 95.749,55.889 95.25,55.741L92.563,54.795L93.11,50.767L103.411,50.767L103.411,71.413C103.411,72.211 103.459,72.309 104.207,72.41L106.745,72.758L106.745,76.687L92.563,76.687ZM126.42,74.756C124.279,75.799 121.146,76.746 118.308,76.746C112.388,76.746 110.15,74.36 110.15,68.735L110.15,55.7C110.15,55.403 110.15,55.203 109.751,55.203L106.269,55.203L106.269,50.775C110.649,50.276 112.389,48.087 112.936,42.664L117.664,42.664L117.664,49.731C117.664,50.078 117.664,50.229 118.062,50.229L125.077,50.229L125.077,55.204L117.664,55.204L117.664,67.094C117.664,70.029 118.361,71.173 121.047,71.173C122.442,71.173 123.883,70.826 125.077,70.378L126.42,74.756Z" style="fill-rule:nonzero;"/>
    <path d="M52.7,61.7L29.951,38.952C28.65,37.651 26.508,37.651 25.207,38.952L20.483,43.676L26.474,49.668C27.909,49.18 29.503,49.552 30.574,50.624C31.652,51.703 32.02,53.308 31.521,54.749L37.296,60.524C37.718,60.377 38.161,60.302 38.608,60.302C40.796,60.302 42.596,62.102 42.596,64.29C42.596,65.351 42.173,66.369 41.421,67.117C40.672,67.867 39.655,68.289 38.595,68.289C36.406,68.289 34.603,66.487 34.603,64.297C34.603,63.775 34.706,63.258 34.905,62.775L29.519,57.389L29.518,71.563C30.878,72.235 31.742,73.626 31.742,75.142C31.742,76.2 31.322,77.216 30.574,77.964C29.825,78.712 28.809,79.133 27.751,79.133C25.561,79.133 23.758,77.33 23.758,75.14C23.758,73.524 24.74,72.06 26.235,71.446L26.235,57.141C24.739,56.528 23.757,55.065 23.757,53.449C23.757,52.919 23.863,52.394 24.068,51.905L18.162,45.997L2.563,61.595C1.934,62.224 1.58,63.079 1.58,63.969C1.58,64.858 1.934,65.713 2.563,66.342L25.312,89.09C26.614,90.391 28.756,90.391 30.058,89.09L52.7,66.446C53.329,65.817 53.683,64.963 53.683,64.073C53.683,63.183 53.329,62.329 52.7,61.7Z" style="fill-rule:nonzero;"/>
    <rect x="1.58" y="37.928" width="124.84" height="52.143" style="fill:none;fill-rule:nonzero;"/>
</svg>
