<?xml version="1.0" encoding="UTF-8" standalone="no"?>
<!DOCTYPE svg PUBLIC "-//W3C//DTD SVG 1.1//EN" "http://www.w3.org/Graphics/SVG/1.1/DTD/svg11.dtd">
<svg width="100%" height="100%" viewBox="0 0 128 128" version="1.1" xmlns="http://www.w3.org/2000/svg" xmlns:xlink="http://www.w3.org/1999/xlink" xml:space="preserve" xmlns:serif="http://www.serif.com/" style="fill-rule:evenodd;clip-rule:evenodd;stroke-linejoin:round;stroke-miterlimit:2;">
    <path d="M19.569,27L27.656,116.919L63.945,126.601L100.335,117.102L108.431,27L19.569,27ZM91.61,47.471L91.103,53.305L90.88,56L48.311,56L49.328,68L89.868,68L89.597,70.231L86.982,99.14L86.79,100.83L64,106.964L64,106.959L63.973,106.971L41.196,101.055L39.65,84L50.818,84L51.609,92.46L63.994,95.599L64,95.365L64,95.377L76.412,92.728L77.708,79L39.153,79L36.419,48.164L36.152,45L91.876,45L91.61,47.471ZM27.956,1.627L33.578,1.627L33.578,7.183L38.722,7.183L38.722,1.627L44.345,1.627L44.345,18.449L38.722,18.449L38.722,12.816L33.579,12.816L33.579,18.449L27.956,18.449L27.956,1.627ZM51.738,7.206L46.788,7.206L46.788,1.627L62.313,1.627L62.313,7.206L57.361,7.206L57.361,18.449L51.738,18.449L51.738,7.206ZM64.776,1.627L70.639,1.627L74.246,7.538L77.849,1.627L83.714,1.627L83.714,18.449L78.113,18.449L78.113,10.111L74.246,16.092L74.148,16.092L70.278,10.111L70.278,18.449L64.776,18.449L64.776,1.627ZM86.513,1.627L92.137,1.627L92.137,12.889L100.044,12.889L100.044,18.45L86.513,18.45L86.513,1.627Z" style="fill-rule:nonzero;"/>
</svg>
