<?xml version="1.0" encoding="UTF-8" standalone="no"?>
<!DOCTYPE svg PUBLIC "-//W3C//DTD SVG 1.1//EN" "http://www.w3.org/Graphics/SVG/1.1/DTD/svg11.dtd">
<svg width="100%" height="100%" viewBox="0 0 128 128" version="1.1" xmlns="http://www.w3.org/2000/svg" xmlns:xlink="http://www.w3.org/1999/xlink" xml:space="preserve" xmlns:serif="http://www.serif.com/" style="fill-rule:evenodd;clip-rule:evenodd;stroke-linejoin:round;stroke-miterlimit:2;">
    <path d="M2,38.5L126,38.5L126,82.21L64,82.21L64,89.5L36.44,89.5L36.44,82.21L2,82.21L2,38.5ZM8.89,74.93L22.67,74.93L22.67,53.07L29.56,53.07L29.56,74.93L36.45,74.93L36.45,45.79L8.89,45.79L8.89,74.93ZM43.33,45.79L43.33,82.21L57.11,82.21L57.11,74.93L70.89,74.93L70.89,45.79L43.33,45.79ZM57.11,53.08L64,53.08L64,67.64L57.11,67.64L57.11,53.08ZM77.78,45.79L77.78,74.93L91.56,74.93L91.56,53.07L98.45,53.07L98.45,74.93L105.34,74.93L105.34,53.07L112.23,53.07L112.23,74.93L119.12,74.93L119.12,45.79L77.78,45.79Z" style="fill:rgb(55,119,188);fill-rule:nonzero;"/>
</svg>
