<?xml version="1.0" encoding="UTF-8" standalone="no"?>
<!DOCTYPE svg PUBLIC "-//W3C//DTD SVG 1.1//EN" "http://www.w3.org/Graphics/SVG/1.1/DTD/svg11.dtd">
<svg width="100%" height="100%" viewBox="0 0 11221 1993" version="1.1" xmlns="http://www.w3.org/2000/svg" xmlns:xlink="http://www.w3.org/1999/xlink" xml:space="preserve" xmlns:serif="http://www.serif.com/" style="fill-rule:evenodd;clip-rule:evenodd;stroke-linejoin:round;stroke-miterlimit:2;">
    <g transform="matrix(1,0,0,1,-80.8016,-2196.67)">
        <g id="logo" transform="matrix(4.16667,0,0,4.16667,0,0)">
            <g transform="matrix(2.59171,0,0,2.59171,-696.301,-605.874)">
                <g>
                    <path d="M336.129,526.386C332.942,527.242 329.829,527.933 329.212,527.923C328.595,527.913 324.624,527.71 322.027,527.564C319.431,527.419 317.307,524.599 317.307,521.3L317.307,473.61C317.307,470.31 319.557,467.61 322.307,467.61C325.057,467.61 330.004,467.726 333.302,467.868C333.302,467.868 339.9,468.152 344.78,472.839C349.812,477.68 350.124,484.604 350.124,484.604C350.272,487.901 350.393,493.299 350.393,496.598L350.393,497.587C350.393,500.886 350.135,506.274 349.819,509.559C349.819,509.559 349.052,517.546 346.045,521.355C343.672,524.36 336.129,526.386 336.129,526.386M296.194,592.665C296.194,595.965 298.894,598.665 302.194,598.665L311.307,598.665C314.607,598.665 317.307,595.965 317.307,592.665L317.307,540.993C317.307,537.693 320.007,534.993 323.307,534.993L332.342,534.993C335.642,534.993 341.036,534.802 344.327,534.569C344.327,534.569 351.855,534.035 356.105,532.144C359.379,530.69 361.478,528.853 362.526,526.528C363.363,524.671 364.247,514.544 364.247,514.544C364.533,511.257 364.768,505.867 364.768,502.567L364.768,500.798C364.768,497.498 364.65,492.1 364.506,488.803C364.506,488.803 364.027,477.823 363.406,475.093C362.715,472.058 361.475,469.592 359.615,467.551C357.882,465.65 354.774,464.006 350.628,462.796C345.545,461.312 333.595,460.811 333.595,460.811C330.298,460.673 324.9,460.559 321.6,460.559L302.194,460.559C298.894,460.559 296.194,463.26 296.194,466.559L296.194,592.665ZM337.307,612.665C337.307,615.965 334.607,618.665 331.307,618.665L282.194,618.665C278.894,618.665 276.194,615.965 276.194,612.665L276.194,446.559C276.194,443.26 278.894,440.559 282.194,440.559L321.6,440.559C324.9,440.559 330.297,440.683 333.594,440.835C333.594,440.835 349.229,441.553 356.232,443.596C364.015,445.869 370.126,449.394 374.394,454.076C378.586,458.673 381.45,464.251 382.907,470.655C384.159,476.157 384.572,488.801 384.572,488.801C384.68,492.099 384.768,497.498 384.768,500.798L384.768,502.567C384.768,505.867 384.593,511.261 384.379,514.554C384.379,514.554 383.457,528.761 380.76,534.746C377.644,541.658 372.082,546.931 364.229,550.421C357.31,553.497 344.324,554.521 344.324,554.521C341.034,554.781 338.109,554.993 337.825,554.993C337.54,554.993 337.307,557.693 337.307,560.993L337.307,612.665Z" style="fill:url(#_Linear1);fill-rule:nonzero;stroke:black;stroke-width:0.09px;"/>
                    <path d="M396.585,592.665C396.585,595.965 399.285,598.665 402.585,598.665L441.873,598.665C445.174,598.665 447.873,596.046 447.873,592.845C447.873,589.644 445.174,587.024 441.873,587.024L423.698,587.024C420.397,587.024 417.698,584.324 417.698,581.024L417.698,538.259C417.698,534.959 420.397,532.259 423.698,532.259L437.382,532.259C440.681,532.259 443.382,529.991 443.382,527.22C443.382,524.448 440.681,522.181 437.382,522.181L423.698,522.181C420.397,522.181 417.698,519.48 417.698,516.181L417.698,478.2C417.698,474.9 420.397,472.2 423.698,472.2L439.14,472.2C442.438,472.2 445.14,469.581 445.14,466.38C445.14,463.179 442.438,460.56 439.14,460.56L402.585,460.56C399.285,460.56 396.585,463.26 396.585,466.56L396.585,592.665ZM467.873,612.665C467.873,615.965 465.174,618.665 461.873,618.665L382.585,618.665C379.285,618.665 376.585,615.965 376.585,612.665L376.585,446.56C376.585,443.26 379.285,440.56 382.585,440.56L459.14,440.56C462.438,440.56 465.14,443.26 465.14,446.56L465.14,486.2C465.14,489.5 464.744,494.446 464.26,497.19C463.777,499.935 463.382,504.881 463.382,508.181L463.382,546.259C463.382,549.559 464.168,554.842 465.128,557.999L466.126,561.284C467.087,564.441 467.873,569.725 467.873,573.024L467.873,612.665Z" style="fill:url(#_Linear2);fill-rule:nonzero;stroke:black;stroke-width:0.09px;"/>
                    <path d="M479.69,592.665C479.69,595.965 482.39,598.665 485.69,598.665L494.803,598.665C498.103,598.665 500.803,595.965 500.803,592.665L500.803,532.213C500.803,528.913 503.3,526.488 506.351,526.825C509.402,527.161 511.924,527.439 511.954,527.442C511.984,527.446 509.572,526.594 506.461,525.534C503.349,524.474 500.803,520.906 500.803,517.606L500.803,473.61C500.803,470.311 503.053,467.61 505.803,467.61C508.553,467.61 513.483,467.943 516.758,468.349C516.758,468.349 523.481,469.183 527.19,472.418C531.305,476.01 532.444,483.879 532.444,483.879C532.917,487.145 533.303,491.773 533.303,494.163C533.303,496.553 533.168,501.206 533.003,504.501L529.606,513.242C528.108,516.183 529.076,518.094 531.757,517.49C534.438,516.885 538.982,515.711 541.855,514.88C544.729,514.05 550.075,509.645 551.28,506.574C551.28,506.574 551.487,506.047 551.487,493.724C551.487,479.633 548.946,473.064 546.814,470.035C543.914,465.914 540.497,463.543 536.064,462.576C531.844,461.656 504.788,460.758 504.788,460.758C501.49,460.649 496.091,460.56 492.792,460.56L485.69,460.56C482.39,460.56 479.69,463.26 479.69,466.56L479.69,592.665ZM533.303,592.665C533.303,595.965 536.003,598.665 539.303,598.665L545.487,598.665C548.787,598.665 551.487,595.965 551.487,592.665L551.487,572.966C551.487,569.666 551.405,564.267 551.304,560.969C551.304,560.969 550.863,546.47 550.737,545.911L550.602,545.349C549.089,542.967 546.188,540.18 544.155,539.157C542.123,538.133 533.87,535.009 531.814,534.296C529.758,533.582 528.571,533.531 529.176,534.183L529.64,534.884C531.841,538.216 532.815,550.146 532.815,550.146C533.084,553.435 533.303,558.826 533.303,562.126L533.303,592.665ZM571.487,612.665C571.487,615.965 568.787,618.665 565.487,618.665L465.69,618.665C462.39,618.665 459.69,615.965 459.69,612.665L459.69,446.56C459.69,443.26 462.39,440.56 465.69,440.56L492.792,440.56C496.091,440.56 501.491,440.624 504.79,440.703C504.79,440.703 532.68,441.369 540.325,443.035C549.688,445.078 557.373,450.289 563.169,458.524C568.767,466.478 571.487,477.992 571.487,493.724C571.487,508.523 569.128,536.865 570.182,541.23C570.827,543.903 571.315,560.968 571.315,560.968C571.41,564.267 571.487,569.666 571.487,572.966L571.487,612.665Z" style="fill:url(#_Linear3);fill-rule:nonzero;stroke:black;stroke-width:0.09px;"/>
                    <path d="M678.315,592.665C678.317,595.965 681.018,598.665 684.318,598.665L688.26,598.665C691.56,598.665 694.26,595.965 694.26,592.665L694.26,466.56C694.26,463.26 691.56,460.56 688.26,460.56L665.571,460.56C662.271,460.56 659.228,463.238 658.809,466.511L642.706,592.341C642.287,595.615 641.556,595.621 641.082,592.355L626.428,491.397C625.954,488.131 625.205,482.784 624.764,479.513L622.94,466.496C622.461,463.231 619.37,460.56 616.07,460.56L593.405,460.56C590.105,460.56 587.405,463.26 587.405,466.56L587.405,592.665C587.405,595.965 590.105,598.665 593.405,598.665L597.347,598.665C600.647,598.665 603.348,595.965 603.35,592.665L603.388,510.363C603.39,507.063 606.084,504.17 609.376,503.934L617.303,503.366C620.595,503.13 623.674,505.609 624.147,508.874L636.277,592.727C636.75,595.993 638.955,598.665 641.177,598.665C643.4,598.665 645.577,595.989 646.015,592.718L657.565,506.545C658.003,503.275 661.056,500.778 664.349,500.997L672.287,501.524C675.58,501.743 678.275,504.622 678.277,507.922L678.315,592.665ZM714.26,612.665C714.26,615.965 711.56,618.665 708.26,618.665L573.405,618.665C570.105,618.665 567.405,615.965 567.405,612.665L567.405,446.56C567.405,443.26 570.105,440.56 573.405,440.56L633.08,440.56C636.38,440.56 639.392,442.441 639.774,444.741C640.156,447.04 640.504,449.141 640.548,449.408C640.592,449.676 640.993,448.176 641.338,445.474C641.684,442.771 644.668,440.56 647.967,440.56L708.26,440.56C711.56,440.56 714.26,443.26 714.26,446.56L714.26,612.665Z" style="fill:url(#_Linear4);fill-rule:nonzero;stroke:black;stroke-width:0.09px;"/>
                    <path d="M832.327,592.665C832.327,595.965 835.027,598.665 838.327,598.665L847.44,598.665C850.74,598.665 853.44,595.965 853.44,592.665L853.44,538.259C853.44,534.959 856.14,532.259 859.44,532.259L872.831,532.259C876.131,532.259 878.831,529.991 878.831,527.22C878.831,524.448 876.131,522.181 872.831,522.181L859.44,522.181C856.14,522.181 853.44,519.48 853.44,516.181L853.44,478.2C853.44,474.9 856.14,472.2 859.44,472.2L875.956,472.2C879.256,472.2 881.956,469.581 881.956,466.38C881.956,463.179 879.256,460.56 875.956,460.56L838.327,460.56C835.027,460.56 832.327,463.26 832.327,466.56L832.327,592.665ZM899.083,612.665C899.097,615.965 896.408,618.665 893.108,618.665L818.327,618.665C815.027,618.665 812.327,615.965 812.327,612.665L812.327,446.56C812.327,443.26 815.027,440.56 818.327,440.56L895.956,440.56C899.256,440.56 901.956,443.26 901.956,446.56L901.956,486.2C901.956,489.5 901.253,494.446 900.393,497.19C899.534,499.935 898.831,504.881 898.831,508.181L898.831,546.259C898.831,549.559 898.842,554.959 898.856,558.259L899.083,612.665Z" style="fill:url(#_Linear5);fill-rule:nonzero;stroke:black;stroke-width:0.09px;"/>
                    <path d="M911.916,592.665C911.916,595.965 914.617,598.665 917.916,598.665L927.029,598.665C930.329,598.665 933.03,595.965 933.03,592.665L933.03,533.376C933.03,530.076 935.439,527.376 938.383,527.376C941.327,527.376 943.368,526.344 942.384,525.074C941.399,523.805 938.892,522.767 936.812,522.767C934.732,522.767 933.03,520.066 933.03,516.767L933.03,473.61C933.03,470.311 935.279,467.61 938.03,467.61C940.779,467.61 945.709,467.943 948.984,468.349C948.984,468.349 955.708,469.183 959.416,472.417C963.531,476.009 964.67,483.879 964.67,483.879C965.143,487.145 965.529,491.773 965.529,494.163C965.529,496.553 965.396,501.206 965.229,504.501L961.831,513.243C960.333,516.184 961.302,518.095 963.982,517.49C966.663,516.885 971.208,515.711 974.083,514.88C976.955,514.049 982.302,509.645 983.507,506.573C983.507,506.573 983.713,506.048 983.713,493.724C983.713,479.633 981.172,473.064 979.041,470.035C976.139,465.914 972.723,463.543 968.29,462.576C964.07,461.656 937.014,460.758 937.014,460.758C933.716,460.649 928.317,460.56 925.018,460.56L917.916,460.56C914.617,460.56 911.916,463.26 911.916,466.56L911.916,592.665ZM965.529,592.665C965.529,595.965 968.229,598.665 971.529,598.665L977.713,598.665C981.013,598.665 983.713,595.965 983.713,592.665L983.713,572.966C983.713,569.666 983.631,564.267 983.53,560.969C983.53,560.969 983.089,546.47 982.964,545.911L982.829,545.349C981.315,542.967 978.416,540.182 976.386,539.16C974.354,538.138 966.113,535.014 964.083,534.308C962.054,533.602 960.853,533.555 961.416,534.204L961.867,534.884C964.067,538.218 965.041,550.146 965.041,550.146C965.31,553.435 965.529,558.826 965.529,562.126L965.529,592.665ZM1003.71,612.665C1003.71,615.965 1001.01,618.665 997.713,618.665L897.916,618.665C894.617,618.665 891.916,615.965 891.916,612.665L891.916,446.56C891.916,443.26 894.617,440.56 897.916,440.56L925.018,440.56C928.317,440.56 933.718,440.624 937.016,440.703C937.016,440.703 964.906,441.369 972.551,443.035C981.913,445.078 989.599,450.289 995.396,458.524C1000.99,466.478 1003.71,477.991 1003.71,493.724C1003.71,508.524 1001.36,536.866 1002.41,541.23C1003.05,543.903 1003.54,560.968 1003.54,560.968C1003.64,564.267 1003.71,569.666 1003.71,572.966L1003.71,612.665Z" style="fill:url(#_Linear6);fill-rule:nonzero;stroke:black;stroke-width:0.09px;"/>
                    <path d="M1061.63,593.4C1058.49,594.405 1053.33,594.458 1050.17,593.519C1050.17,593.519 1043.41,591.512 1041.25,585.289C1040.38,582.793 1039.85,571.006 1039.85,571.006C1039.7,567.71 1039.57,562.312 1039.57,559.012L1039.57,497.184C1039.57,493.884 1039.78,488.492 1040.03,485.202C1040.03,485.202 1040.9,473.943 1043.04,470.828C1046.05,466.425 1050.74,463.997 1056.21,463.997C1062.85,463.997 1068.2,467.504 1070.54,473.379C1071.54,475.907 1072.1,485.195 1072.1,485.195C1072.3,488.489 1072.46,493.884 1072.46,497.184L1072.46,557.84C1072.46,561.14 1072.34,566.538 1072.19,569.834C1072.19,569.834 1071.64,581.966 1070.83,584.528C1068.74,591.127 1061.63,593.4 1061.63,593.4M1062,457.745C1058.71,457.467 1053.33,457.468 1050.04,457.749C1050.04,457.749 1041.99,458.436 1036.58,460.796C1031.5,463.016 1027.63,466.051 1024.73,470.075C1021.78,474.169 1020.08,478.549 1019.52,483.47C1018.82,489.674 1018.54,510.087 1018.54,510.087C1018.5,513.387 1018.46,518.787 1018.46,522.087L1018.46,537.137C1018.46,540.437 1018.5,545.837 1018.54,549.137C1018.54,549.137 1018.83,570.041 1019.56,576.126C1020.14,580.926 1021.91,585.277 1024.99,589.428C1028.01,593.509 1031.95,596.504 1037.01,598.584C1042.51,600.84 1048.9,601.985 1056.02,601.985C1063.51,601.985 1070.05,600.788 1075.45,598.426C1080.53,596.208 1084.41,593.172 1087.31,589.147C1090.26,585.056 1091.96,580.673 1092.52,575.752C1093.22,569.535 1093.5,549.137 1093.5,549.137C1093.54,545.837 1093.58,540.437 1093.58,537.137L1093.58,522.087C1093.58,518.787 1093.54,513.387 1093.49,510.087C1093.49,510.087 1093.21,489.185 1092.48,483.098C1091.9,478.299 1090.12,473.947 1087.05,469.795C1084.02,465.716 1080.09,462.721 1075.02,460.639C1069.53,458.383 1062,457.745 1062,457.745M1061.99,621.445C1058.71,621.742 1053.33,621.748 1050.04,621.458C1050.04,621.458 1037.34,620.337 1029.42,617.086C1021,613.629 1005.66,615.264 1005.66,615.264C1002.38,615.614 999.788,613.202 999.9,609.903C999.9,609.903 1000.69,586.737 999.702,578.508C998.866,571.539 998.545,549.137 998.545,549.137C998.498,545.837 998.459,540.437 998.459,537.137L998.459,522.087C998.459,518.787 998.497,513.387 998.543,510.087C998.543,510.087 998.847,488.265 999.646,481.22C1000.58,472.921 1003.56,465.237 1008.5,458.385C1013.48,451.469 1020.24,446.113 1028.58,442.47C1036.52,438.999 1045.75,437.239 1056.02,437.239C1065.75,437.239 1074.7,438.887 1082.62,442.138C1091.04,445.596 1097.93,450.894 1103.11,457.885C1108.24,464.808 1111.35,472.489 1112.33,480.715C1113.17,487.687 1113.49,510.087 1113.49,510.087C1113.54,513.387 1113.58,518.787 1113.58,522.087L1113.58,537.137C1113.58,540.437 1113.54,545.837 1113.49,549.137C1113.49,549.137 1113.19,570.941 1112.39,578.001C1111.45,586.304 1108.47,593.986 1103.54,600.837C1098.55,607.755 1091.8,613.11 1083.46,616.754C1075.51,620.225 1061.99,621.445 1061.99,621.445" style="fill:url(#_Linear7);fill-rule:nonzero;stroke:black;stroke-width:0.09px;"/>
                    <path d="M1132.76,562.024C1129.46,562.024 1126.76,562.103 1126.76,562.2C1126.76,562.296 1126.98,565.067 1127.24,568.357C1127.24,568.357 1128.38,582.678 1129.74,586.316C1131.28,590.445 1134.76,593.913 1140.38,596.919C1146.65,600.281 1154.55,601.985 1163.83,601.985C1172.3,601.985 1179.72,600.491 1185.88,597.544C1191.33,594.938 1194.91,591.965 1196.51,588.71C1197.61,586.5 1199.44,580.904 1199.44,568.235C1199.44,551.579 1196.5,543.784 1194.05,540.177C1191.85,536.961 1184.85,529.593 1162.62,516.4C1154.34,511.507 1149.59,507.296 1147.25,502.768C1145.04,498.6 1143.97,493.183 1143.97,486.213C1143.97,480.132 1145.09,475.387 1147.4,471.707C1150.48,466.806 1155.62,463.997 1161.49,463.997C1167.18,463.997 1171.89,466.405 1174.74,470.778C1176.94,474.148 1177.41,480.707 1177.41,480.707C1177.64,483.999 1177.83,487.079 1177.83,487.551C1177.83,488.024 1180.53,488.411 1183.83,488.411L1189.98,488.411C1193.28,488.411 1195.69,485.726 1195.35,482.443C1195.35,482.443 1194.22,471.661 1193.29,469.674C1191.89,466.67 1188.51,463.921 1183.24,461.503C1177.08,458.673 1169.3,457.239 1160.12,457.239C1151.85,457.239 1144.83,458.527 1139.28,461.068C1134.33,463.334 1130.93,466.237 1128.88,469.943C1127.62,472.238 1125.49,478.112 1125.49,491.672C1125.49,498.747 1126.35,504.452 1128.03,508.63C1129.65,512.627 1131.58,515.683 1133.79,517.717C1135.8,519.565 1140.73,523.451 1152.85,531.48C1167.34,540.991 1169.67,543.256 1169.67,543.256C1172.03,545.56 1173.98,547.466 1174.01,547.493C1174.03,547.519 1175.26,549.954 1176.74,552.904C1176.74,552.904 1180.37,560.154 1180.37,572.434C1180.37,578.621 1179.23,583.476 1176.87,587.277C1173.68,592.406 1168.5,595.227 1162.27,595.227C1153.91,595.227 1149.81,590.726 1148.11,588.044C1145.86,584.502 1145.36,577.248 1145.36,577.248C1145.13,573.956 1144.94,569.184 1144.94,566.643C1144.94,564.103 1142.24,562.024 1138.94,562.024L1132.76,562.024ZM1169.8,621.396C1166.52,621.72 1161.14,621.701 1157.86,621.355C1157.86,621.355 1140.15,619.484 1130.94,614.55C1120.98,609.222 1114.28,602.078 1111.01,593.316C1108.15,585.674 1107.12,568.365 1107.12,568.365C1106.92,565.071 1106.76,559.675 1106.76,556.376L1106.76,548.024C1106.76,544.724 1107.5,539.427 1108.4,536.254C1108.4,536.254 1112.22,522.88 1109.49,516.117C1106.8,509.459 1105.49,501.461 1105.49,491.672C1105.49,477.715 1107.41,467.446 1111.38,460.275C1115.51,452.791 1122.1,446.938 1130.96,442.882C1139.14,439.137 1148.95,437.239 1160.12,437.239C1172.2,437.239 1182.78,439.287 1191.58,443.326C1201.29,447.779 1207.96,453.802 1211.42,461.228C1214.56,467.963 1215.66,486.171 1215.66,486.171C1215.86,489.465 1216.02,494.861 1216.02,498.161L1216.02,502.411C1216.02,505.711 1214.52,510.657 1212.69,513.402C1212.69,513.402 1208.66,519.439 1209.61,526.277C1209.74,527.254 1210.05,528.146 1210.57,528.907C1216.54,537.66 1219.44,550.523 1219.44,568.235C1219.44,581.176 1217.8,590.77 1214.45,597.566C1210.81,604.936 1204.1,610.999 1194.51,615.586C1185.64,619.832 1169.8,621.396 1169.8,621.396" style="fill:url(#_Linear8);fill-rule:nonzero;stroke:black;stroke-width:0.09px;"/>
                    <path d="M1249.61,592.665C1249.61,595.965 1252.31,598.665 1255.61,598.665L1264.73,598.665C1268.03,598.665 1270.73,595.965 1270.73,592.665L1270.73,478.2C1270.73,474.9 1273.42,472.2 1276.73,472.2L1289.14,472.2C1292.44,472.2 1295.14,469.581 1295.14,466.38C1295.14,463.179 1292.44,460.56 1289.14,460.56L1231.3,460.56C1228,460.56 1225.3,463.179 1225.3,466.38C1225.3,469.581 1228,472.2 1231.3,472.2L1243.61,472.2C1246.91,472.2 1249.61,474.9 1249.61,478.2L1249.61,592.665ZM1290.73,612.665C1290.73,615.965 1288.03,618.665 1284.73,618.665L1235.61,618.665C1232.31,618.665 1229.61,615.965 1229.61,612.665L1229.61,498.2C1229.61,494.9 1226.91,492.2 1223.61,492.2L1211.3,492.2C1208,492.2 1205.3,489.5 1205.3,486.2L1205.3,446.56C1205.3,443.26 1208,440.56 1211.3,440.56L1309.14,440.56C1312.44,440.56 1315.14,443.26 1315.14,446.56L1315.14,486.2C1315.14,489.5 1312.44,492.2 1309.14,492.2L1296.73,492.2C1293.42,492.2 1290.73,494.9 1290.73,498.2L1290.73,612.665Z" style="fill:url(#_Linear9);fill-rule:nonzero;stroke:black;stroke-width:0.09px;"/>
                </g>
                <g transform="matrix(1,0,0,1,0.277809,0)">
                    <path d="M327.307,477.61L327.307,511.844C327.307,515.144 328.288,517.888 329.487,517.942L330.334,517.942C334.109,517.942 336.731,517.014 338.196,515.159C339.661,513.303 340.393,509.446 340.393,503.587L340.393,496.598C340.393,493.298 340.138,487.91 339.826,484.625C339.826,484.625 339.546,481.679 337.854,480.051C336.16,478.425 332.644,477.61 327.307,477.61M286.194,456.559C286.194,453.259 288.894,450.559 292.194,450.559L321.6,450.559C324.9,450.559 330.297,450.679 333.594,450.825C333.594,450.825 347.407,451.438 353.43,453.196C359.451,454.954 363.977,457.493 367.004,460.813C370.032,464.133 372.082,468.154 373.157,472.874C374.231,477.595 374.768,484.902 374.768,494.798L374.768,502.567C374.768,505.867 374.607,511.262 374.41,514.556C374.41,514.556 373.725,526.015 371.643,530.637C369.558,535.261 365.735,538.808 360.168,541.282C354.602,543.757 347.327,544.993 338.342,544.993L333.307,544.993C330.007,544.993 327.307,547.693 327.307,550.993L327.307,602.665C327.307,605.964 324.607,608.665 321.307,608.665L292.194,608.665C288.894,608.665 286.194,605.964 286.194,602.665L286.194,456.559Z" style="fill:white;fill-rule:nonzero;"/>
                    <path d="M386.585,456.559C386.585,453.259 389.285,450.559 392.585,450.559L449.14,450.559C452.438,450.559 455.14,453.259 455.14,456.559L455.14,476.2C455.14,479.499 452.438,482.2 449.14,482.2L433.698,482.2C430.397,482.2 427.698,484.9 427.698,488.2L427.698,506.18C427.698,509.48 430.397,512.18 433.698,512.18L447.382,512.18C450.682,512.18 453.382,514.88 453.382,518.18L453.382,536.258C453.382,539.558 450.682,542.258 447.382,542.258L433.698,542.258C430.397,542.258 427.698,544.958 427.698,548.258L427.698,571.024C427.698,574.324 430.397,577.024 433.698,577.024L451.873,577.024C455.174,577.024 457.873,579.724 457.873,583.024L457.873,602.664C457.873,605.964 455.174,608.664 451.873,608.664L392.585,608.664C389.285,608.664 386.585,605.964 386.585,602.664L386.585,456.559Z" style="fill:white;fill-rule:nonzero;"/>
                    <path d="M510.803,477.61L510.803,506.766C510.803,510.066 513.494,512.549 516.783,512.283C516.783,512.283 518.664,512.131 520.52,510.862C522.375,509.592 523.303,505.476 523.303,498.508L523.303,495.817C523.303,492.517 523.013,487.132 522.659,483.852C522.659,483.852 522.407,481.516 520.617,479.954C518.825,478.391 515.554,477.61 510.803,477.61M469.69,456.559C469.69,453.259 472.39,450.559 475.69,450.559L492.791,450.559C496.091,450.559 501.49,450.621 504.79,450.697C504.79,450.697 531.325,451.308 538.196,452.805C545.063,454.304 550.661,458.128 554.992,464.28C559.321,470.432 561.487,480.247 561.487,493.723C561.487,506.028 559.956,514.297 556.897,518.528C553.835,522.761 547.815,525.3 538.83,526.145C546.968,528.164 552.436,530.866 555.237,534.251C558.034,537.636 559.778,540.745 560.461,543.577C561.145,546.409 561.487,554.206 561.487,566.965L561.487,602.665C561.487,605.964 558.786,608.665 555.487,608.665L529.303,608.665C526.003,608.665 523.303,605.964 523.303,602.665L523.303,562.126C523.303,558.826 523.171,553.429 523.011,550.133C523.011,550.133 522.634,542.422 521.301,540.403C519.966,538.386 516.467,537.376 510.803,537.376L510.803,602.665C510.803,605.964 508.103,608.665 504.803,608.665L475.69,608.665C472.39,608.665 469.69,605.964 469.69,602.665L469.69,456.559Z" style="fill:white;fill-rule:nonzero;"/>
                    <path d="M698.26,450.559C701.56,450.559 704.26,453.259 704.26,456.559L704.26,602.664C704.26,605.964 701.56,608.664 698.26,608.664L674.322,608.664C671.023,608.664 668.321,605.964 668.32,602.664L668.277,507.926C668.275,504.626 667.915,504.602 667.477,507.873L654.764,602.718C654.326,605.988 651.267,608.664 647.967,608.664L634.479,608.664C631.179,608.664 628.092,605.992 627.62,602.726L614.25,510.306C613.778,507.04 613.389,507.068 613.388,510.368L613.345,602.664C613.343,605.964 610.642,608.664 607.342,608.664L583.405,608.664C580.105,608.664 577.405,605.964 577.405,602.664L577.405,456.559C577.405,453.259 580.105,450.559 583.405,450.559L624.603,450.559C627.903,450.559 631.015,453.227 631.52,456.489C631.52,456.489 633.807,471.268 635.483,484.171L640.459,518.449C640.933,521.715 641.663,521.709 642.082,518.435L650.007,456.511C650.426,453.237 653.469,450.559 656.769,450.559L698.26,450.559Z" style="fill:white;fill-rule:nonzero;"/>
                    <path d="M822.327,456.559C822.327,453.259 825.027,450.559 828.327,450.559L885.956,450.559C889.256,450.559 891.956,453.259 891.956,456.559L891.956,476.2C891.956,479.499 889.256,482.2 885.956,482.2L869.44,482.2C866.14,482.2 863.44,484.9 863.44,488.2L863.44,506.18C863.44,509.48 866.14,512.18 869.44,512.18L882.831,512.18C886.131,512.18 888.831,514.88 888.831,518.18L888.831,536.258C888.831,539.558 886.131,542.258 882.831,542.258L869.44,542.258C866.14,542.258 863.44,544.958 863.44,548.258L863.44,602.664C863.44,605.964 860.74,608.664 857.44,608.664L828.327,608.664C825.027,608.664 822.327,605.964 822.327,602.664L822.327,456.559Z" style="fill:white;fill-rule:nonzero;"/>
                    <path d="M943.03,477.61L943.03,506.766C943.03,510.066 945.721,512.549 949.01,512.283C949.01,512.283 950.891,512.131 952.747,510.862C954.602,509.592 955.53,505.476 955.53,498.508L955.53,495.817C955.53,492.517 955.24,487.132 954.886,483.852C954.886,483.852 954.634,481.516 952.844,479.954C951.052,478.391 947.781,477.61 943.03,477.61M901.917,456.559C901.917,453.259 904.617,450.559 907.917,450.559L925.018,450.559C928.318,450.559 933.717,450.621 937.017,450.697C937.017,450.697 963.552,451.308 970.423,452.805C977.291,454.304 982.888,458.128 987.219,464.28C991.549,470.432 993.714,480.247 993.714,493.723C993.714,506.028 992.183,514.297 989.124,518.528C986.062,522.761 980.042,525.3 971.057,526.145C979.195,528.164 984.664,530.866 987.464,534.251C990.261,537.636 992.005,540.745 992.688,543.577C993.372,546.409 993.714,554.206 993.714,566.965L993.714,602.665C993.714,605.964 991.013,608.665 987.714,608.665L961.53,608.665C958.23,608.665 955.53,605.964 955.53,602.665L955.53,562.126C955.53,558.826 955.398,553.429 955.238,550.133C955.238,550.133 954.861,542.422 953.528,540.403C952.193,538.386 948.694,537.376 943.03,537.376L943.03,602.665C943.03,605.964 940.33,608.665 937.03,608.665L907.917,608.665C904.617,608.665 901.917,605.964 901.917,602.665L901.917,456.559Z" style="fill:white;fill-rule:nonzero;"/>
                    <path d="M1062.46,497.184C1062.46,493.884 1062.37,488.486 1062.26,485.187C1062.26,485.187 1062.06,479.123 1061.24,477.073C1060.43,475.022 1058.75,473.996 1056.21,473.996C1054.07,473.996 1052.42,474.827 1051.28,476.487C1050.14,478.147 1049.57,483.046 1049.57,491.184L1049.57,559.012C1049.57,562.312 1049.64,567.711 1049.72,571.01C1049.72,571.01 1049.95,579.856 1050.69,582.004C1051.44,584.153 1053.19,585.227 1055.92,585.227C1058.72,585.227 1060.51,583.991 1061.29,581.516C1062.07,579.042 1062.46,573.151 1062.46,563.84L1062.46,497.184ZM1103.58,537.137C1103.58,540.437 1103.54,545.837 1103.49,549.137C1103.49,549.137 1103.2,570.27 1102.45,576.877C1101.7,583.486 1099.36,589.524 1095.42,594.993C1091.48,600.461 1086.16,604.661 1079.45,607.59C1072.75,610.52 1064.94,611.985 1056.02,611.985C1047.55,611.985 1039.95,610.601 1033.21,607.834C1026.48,605.068 1021.06,600.917 1016.96,595.383C1012.85,589.851 1010.41,583.828 1009.63,577.317C1008.85,570.808 1008.46,559.413 1008.46,543.137L1008.46,522.086C1008.46,518.787 1008.5,513.387 1008.54,510.087C1008.54,510.087 1008.83,488.955 1009.58,482.346C1010.33,475.739 1012.67,469.7 1016.61,464.231C1020.55,458.762 1025.87,454.563 1032.58,451.633C1039.28,448.704 1047.1,447.239 1056.02,447.239C1064.48,447.239 1072.08,448.622 1078.82,451.389C1085.56,454.157 1090.98,458.308 1095.08,463.84C1099.18,469.374 1101.62,475.397 1102.4,481.907C1103.19,488.417 1103.58,499.811 1103.58,516.086L1103.58,537.137Z" style="fill:white;fill-rule:nonzero;"/>
                    <path d="M1206.02,492.411C1206.02,495.711 1203.32,498.411 1200.02,498.411L1173.83,498.411C1170.54,498.411 1167.83,495.774 1167.83,492.552C1167.83,489.329 1167.69,483.996 1167.51,480.701C1167.51,480.701 1167.35,477.742 1166.37,476.243C1165.39,474.746 1163.77,473.997 1161.49,473.997C1159.01,473.997 1157.14,475.007 1155.87,477.027C1154.6,479.048 1153.97,482.108 1153.97,486.213C1153.97,491.49 1154.68,495.465 1156.11,498.135C1157.47,500.807 1161.34,504.029 1167.73,507.801C1186.03,518.664 1197.55,527.578 1202.31,534.544C1207.06,541.511 1209.44,552.742 1209.44,568.235C1209.44,579.499 1208.12,587.8 1205.48,593.138C1202.84,598.476 1197.75,602.952 1190.2,606.565C1182.64,610.179 1173.86,611.985 1163.83,611.985C1152.83,611.985 1143.43,609.901 1135.66,605.735C1127.88,601.57 1122.78,596.263 1120.37,589.817C1117.96,583.372 1116.76,574.226 1116.76,562.376L1116.76,558.024C1116.76,554.724 1119.46,552.024 1122.76,552.024L1148.94,552.024C1152.24,552.024 1154.94,554.724 1154.94,558.024L1154.94,565.263C1154.94,568.562 1155.09,573.958 1155.27,577.253C1155.27,577.253 1155.48,580.996 1156.56,582.688C1157.63,584.382 1159.53,585.227 1162.27,585.227C1165,585.227 1167.04,584.153 1168.37,582.005C1169.7,579.856 1170.37,576.667 1170.37,572.434C1170.37,563.125 1169.1,557.038 1166.57,554.173C1163.96,551.308 1157.55,546.523 1147.33,539.817C1137.11,533.047 1130.33,528.132 1127.01,525.071C1123.69,522.012 1120.94,517.781 1118.76,512.376C1116.58,506.973 1115.49,500.071 1115.49,491.673C1115.49,479.563 1117.04,470.71 1120.13,465.11C1123.22,459.512 1128.22,455.134 1135.12,451.975C1142.02,448.818 1150.35,447.239 1160.12,447.239C1170.8,447.239 1179.89,448.965 1187.41,452.415C1194.93,455.867 1199.91,460.212 1202.36,465.452C1204.8,470.693 1206.02,479.597 1206.02,492.161L1206.02,492.411Z" style="fill:white;fill-rule:nonzero;"/>
                    <path d="M1299.14,450.559C1302.44,450.559 1305.14,453.259 1305.14,456.559L1305.14,476.2C1305.14,479.499 1302.44,482.2 1299.14,482.2L1286.73,482.2C1283.42,482.2 1280.73,484.9 1280.73,488.2L1280.73,602.664C1280.73,605.964 1278.03,608.664 1274.73,608.664L1245.61,608.664C1242.31,608.664 1239.61,605.964 1239.61,602.664L1239.61,488.2C1239.61,484.9 1236.91,482.2 1233.61,482.2L1221.3,482.2C1218,482.2 1215.3,479.499 1215.3,476.2L1215.3,456.559C1215.3,453.259 1218,450.559 1221.3,450.559L1299.14,450.559Z" style="fill:white;fill-rule:nonzero;"/>
                </g>
            </g>
            <g transform="matrix(1.35822,0,0,1.35822,-486.921,-290.812)">
                <g>
                    <g>
                        <path d="M1382.61,833.69C1386.77,882.999 1350.18,922.971 1300.87,922.971C1251.56,922.971 1215.6,882.999 1220.56,833.69C1225.51,784.382 1262.1,744.41 1302.29,744.41C1342.48,744.41 1378.44,784.382 1382.61,833.69" style="fill-rule:nonzero;"/>
                        <g transform="matrix(0.886724,0,0,0.886724,143.498,93.3728)">
                            <path d="M1353.9,833.69C1355.55,865.528 1331.92,891.337 1301.12,891.337C1270.33,891.337 1247.11,865.528 1249.26,833.69C1251.42,801.853 1275.05,776.043 1302.04,776.043C1329.03,776.043 1352.25,801.853 1353.9,833.69" style="fill:url(#_Radial10);fill-rule:nonzero;stroke:rgb(235,235,235);stroke-width:9.96px;"/>
                        </g>
                    </g>
                    <g>
                        <g transform="matrix(1,0,0,1,-1.43511,-0.086769)">
                            <path d="M1268.13,674.25C1268.13,674.25 1270.34,657.097 1278.41,650.236C1278.41,650.236 1288.58,639.083 1297.48,650.661C1297.48,650.661 1302.72,650.236 1303.4,684.972C1303.4,684.972 1304.58,705.988 1301.17,714.564C1301.17,714.564 1298.87,737.296 1282.36,744.156C1282.36,744.156 1271.63,749.302 1261.48,736.867C1261.48,736.867 1257.49,729.147 1260.13,709.418C1260.13,709.418 1263.77,693.549 1268.13,674.25" style="fill-rule:nonzero;"/>
                        </g>
                        <g transform="matrix(1,0,0,1,1.36433,-0.297983)">
                            <path d="M1318.29,739.008C1318.29,739.008 1333.13,758.741 1344.67,739.008C1344.67,739.008 1349.63,734.29 1352.16,712.42C1352.16,712.42 1355.29,672.966 1346.33,660.099C1346.33,660.099 1334.54,639.983 1323.14,655.381C1312.08,669.671 1299.91,706.842 1318.29,739.008" style="fill-rule:nonzero;"/>
                        </g>
                        <g transform="matrix(0.995728,-0.0923391,0.0923391,0.995728,-55.5721,131.124)">
                            <path d="M1375.45,715.055C1389.44,718.084 1406.67,737.428 1403.52,780.79C1402.76,789.689 1391.82,813.294 1378.21,799.348C1366.38,786.876 1351.39,709.791 1375.45,715.055" style="fill-rule:nonzero;"/>
                        </g>
                        <g transform="matrix(0.995901,0.0904541,-0.0904541,0.995901,63.9136,-107.765)">
                            <path d="M1248.85,707.494C1257.41,711.856 1255.83,719.601 1249.32,753.338C1248.45,757.7 1229.65,803.942 1210.44,791.291C1205.9,788.244 1202.98,783.316 1208.23,764.308C1211.02,754.018 1225.86,695.515 1248.85,707.494" style="fill-rule:nonzero;"/>
                        </g>
                    </g>
                    <g>
                        <g transform="matrix(1,0,0,1,3.81327,-0.742104)">
                            <path d="M1365.46,710.245C1365.46,710.245 1371.01,705.012 1376.42,708.079C1376.42,708.079 1378.96,710.137 1375.32,701.592C1375.32,701.592 1375.65,693.652 1365.37,682.138C1365.37,682.138 1361.8,677.767 1357.35,679.687C1357.35,679.687 1356.07,681.082 1357.56,681.658C1357.56,681.658 1361.38,683.413 1363.39,691.121C1363.39,691.121 1365.15,701.44 1364.39,706.524C1364.39,706.524 1362.89,709.125 1365.46,710.245" style="fill-rule:nonzero;"/>
                        </g>
                        <path d="M1328.53,643.372C1328.53,643.372 1335.42,640.585 1340.56,646.588C1340.56,646.588 1342.78,648.093 1340.74,637.585C1340.74,637.585 1338.85,629.219 1337.67,626.003C1337.67,626.003 1336.54,620.212 1331.64,614.854C1331.64,614.854 1325.64,609.064 1325.62,613.779C1325.62,613.779 1328.92,620.612 1328.99,623.646C1329.07,627.458 1328.57,637.323 1328.53,638.225C1328.44,639.793 1326.71,644.018 1328.53,643.372" style="fill-rule:nonzero;"/>
                        <path d="M1282.67,639.296C1282.67,639.296 1287.65,635.009 1293.39,641.012C1293.39,641.012 1294.57,642.514 1294.1,635.866C1294.1,635.866 1294.08,629.861 1296.94,619.999C1296.94,619.999 1300.28,612.065 1301.75,610.349C1301.75,610.349 1303.8,607.563 1298.72,609.49C1298.72,609.49 1290.66,612.924 1287.67,624.718L1283.12,635.439C1283.12,635.439 1281.17,639.083 1282.67,639.296" style="fill-rule:nonzero;"/>
                        <g transform="matrix(1,0,0,1,-3.86921,-0.366485)">
                            <path d="M1242.91,698.314C1242.91,698.314 1248.23,696.829 1252.48,701.3C1252.48,701.3 1253.7,703.553 1253.6,694.916C1253.6,694.916 1254.69,686.983 1258.08,683.103C1258.08,683.103 1261.83,677.987 1263.7,675.763C1263.7,675.763 1266.8,672.058 1260.19,672.983C1260.19,672.983 1253.6,676.13 1249.76,681.459C1249.76,681.459 1243.62,692.709 1243.18,693.944C1243.18,693.944 1240.59,698.251 1242.91,698.314" style="fill-rule:nonzero;"/>
                        </g>
                    </g>
                </g>
            </g>
        </g>
    </g>
    <defs>
        <linearGradient id="_Linear1" x1="0" y1="0" x2="1" y2="0" gradientUnits="userSpaceOnUse" gradientTransform="matrix(-0.0768183,67.3064,-67.3064,-0.0768183,771.53,488.025)"><stop offset="0" style="stop-color:black;stop-opacity:1"/><stop offset="0.52" style="stop-color:black;stop-opacity:1"/><stop offset="1" style="stop-color:rgb(8,0,0);stop-opacity:1"/></linearGradient>
        <linearGradient id="_Linear2" x1="0" y1="0" x2="1" y2="0" gradientUnits="userSpaceOnUse" gradientTransform="matrix(-0.0768183,67.3064,-67.3064,-0.0768183,771.53,488.025)"><stop offset="0" style="stop-color:black;stop-opacity:1"/><stop offset="0.52" style="stop-color:black;stop-opacity:1"/><stop offset="1" style="stop-color:rgb(8,0,0);stop-opacity:1"/></linearGradient>
        <linearGradient id="_Linear3" x1="0" y1="0" x2="1" y2="0" gradientUnits="userSpaceOnUse" gradientTransform="matrix(-0.0768183,67.3064,-67.3064,-0.0768183,771.53,488.025)"><stop offset="0" style="stop-color:black;stop-opacity:1"/><stop offset="0.52" style="stop-color:black;stop-opacity:1"/><stop offset="1" style="stop-color:rgb(8,0,0);stop-opacity:1"/></linearGradient>
        <linearGradient id="_Linear4" x1="0" y1="0" x2="1" y2="0" gradientUnits="userSpaceOnUse" gradientTransform="matrix(-0.0768183,67.3064,-67.3064,-0.0768183,771.53,488.025)"><stop offset="0" style="stop-color:black;stop-opacity:1"/><stop offset="0.52" style="stop-color:black;stop-opacity:1"/><stop offset="1" style="stop-color:rgb(8,0,0);stop-opacity:1"/></linearGradient>
        <linearGradient id="_Linear5" x1="0" y1="0" x2="1" y2="0" gradientUnits="userSpaceOnUse" gradientTransform="matrix(-0.0768183,67.3064,-67.3064,-0.0768183,771.53,488.025)"><stop offset="0" style="stop-color:black;stop-opacity:1"/><stop offset="0.52" style="stop-color:black;stop-opacity:1"/><stop offset="1" style="stop-color:rgb(8,0,0);stop-opacity:1"/></linearGradient>
        <linearGradient id="_Linear6" x1="0" y1="0" x2="1" y2="0" gradientUnits="userSpaceOnUse" gradientTransform="matrix(-0.0768183,67.3064,-67.3064,-0.0768183,771.53,488.025)"><stop offset="0" style="stop-color:black;stop-opacity:1"/><stop offset="0.52" style="stop-color:black;stop-opacity:1"/><stop offset="1" style="stop-color:rgb(8,0,0);stop-opacity:1"/></linearGradient>
        <linearGradient id="_Linear7" x1="0" y1="0" x2="1" y2="0" gradientUnits="userSpaceOnUse" gradientTransform="matrix(-0.0768183,67.3064,-67.3064,-0.0768183,771.53,488.025)"><stop offset="0" style="stop-color:black;stop-opacity:1"/><stop offset="0.52" style="stop-color:black;stop-opacity:1"/><stop offset="1" style="stop-color:rgb(8,0,0);stop-opacity:1"/></linearGradient>
        <linearGradient id="_Linear8" x1="0" y1="0" x2="1" y2="0" gradientUnits="userSpaceOnUse" gradientTransform="matrix(-0.0768183,67.3064,-67.3064,-0.0768183,771.53,488.025)"><stop offset="0" style="stop-color:black;stop-opacity:1"/><stop offset="0.52" style="stop-color:black;stop-opacity:1"/><stop offset="1" style="stop-color:rgb(8,0,0);stop-opacity:1"/></linearGradient>
        <linearGradient id="_Linear9" x1="0" y1="0" x2="1" y2="0" gradientUnits="userSpaceOnUse" gradientTransform="matrix(-0.0768183,67.3064,-67.3064,-0.0768183,771.53,488.025)"><stop offset="0" style="stop-color:black;stop-opacity:1"/><stop offset="0.52" style="stop-color:black;stop-opacity:1"/><stop offset="1" style="stop-color:rgb(8,0,0);stop-opacity:1"/></linearGradient>
        <radialGradient id="_Radial10" cx="0" cy="0" r="1" gradientUnits="userSpaceOnUse" gradientTransform="matrix(33.1036,44.8184,-44.8184,33.1036,1305.26,832.49)"><stop offset="0" style="stop-color:rgb(235,235,235);stop-opacity:1"/><stop offset="1" style="stop-color:black;stop-opacity:1"/></radialGradient>
    </defs>
</svg>
