<?xml version="1.0" encoding="UTF-8" standalone="no"?>
<!DOCTYPE svg PUBLIC "-//W3C//DTD SVG 1.1//EN" "http://www.w3.org/Graphics/SVG/1.1/DTD/svg11.dtd">
<svg width="100%" height="100%" viewBox="0 0 128 128" version="1.1" xmlns="http://www.w3.org/2000/svg" xmlns:xlink="http://www.w3.org/1999/xlink" xml:space="preserve" xmlns:serif="http://www.serif.com/" style="fill-rule:evenodd;clip-rule:evenodd;stroke-linejoin:round;stroke-miterlimit:2;">
    <path d="M94.145,0.348C93.957,0.365 93.769,0.389 93.582,0.42C93.272,0.411 92.963,0.42 92.654,0.447C92.322,0.498 91.995,0.57 91.672,0.662C91.487,0.68 91.302,0.704 91.119,0.734C90.838,0.847 90.563,0.977 90.297,1.121C90.132,1.192 89.97,1.268 89.811,1.35C89.149,1.702 88.539,2.146 88,2.668L45.486,49.674L20.666,29.334L18.494,27.469C18.233,27.29 17.957,27.136 17.668,27.006C17.496,26.896 17.317,26.796 17.133,26.706C16.936,26.618 16.735,26.542 16.529,26.479C16.318,26.416 16.103,26.366 15.885,26.329C15.717,26.315 15.549,26.31 15.381,26.312C15.212,26.279 15.042,26.254 14.871,26.238C14.782,26.256 14.693,26.276 14.605,26.298C14.534,26.296 14.462,26.295 14.391,26.295C14.315,26.313 14.239,26.333 14.164,26.355C14.003,26.35 13.841,26.352 13.68,26.361C13.436,26.415 13.199,26.495 12.973,26.601L3.279,30.668C2.741,30.902 2.246,31.223 1.813,31.618C1.74,31.675 1.668,31.734 1.598,31.795C1.518,31.896 1.441,32 1.368,32.107C1.125,32.378 0.911,32.673 0.728,32.987C0.631,33.141 0.542,33.3 0.461,33.463C0.429,33.554 0.399,33.646 0.371,33.738C0.267,34.033 0.19,34.337 0.139,34.646C0.084,34.816 0.038,34.988 -0,35.162L-0,92.842C0.038,93.015 0.084,93.186 0.139,93.354C0.189,93.665 0.267,93.971 0.371,94.268C0.399,94.359 0.429,94.449 0.461,94.539C0.542,94.702 0.632,94.862 0.729,95.016C0.911,95.33 1.125,95.624 1.367,95.895C1.44,96.002 1.517,96.106 1.597,96.207C1.667,96.268 1.739,96.328 1.813,96.385C2.246,96.78 2.742,97.1 3.279,97.334L12.973,101.4C13.521,101.617 14.1,101.742 14.689,101.77C14.859,101.775 15.029,101.771 15.199,101.76C15.629,101.746 16.057,101.679 16.471,101.562C16.643,101.519 16.814,101.468 16.981,101.408C17.53,101.202 18.041,100.907 18.494,100.535L20.666,98.668L45.486,78.328L88,125.334C88.562,125.888 89.203,126.355 89.902,126.721C90.1,126.806 90.302,126.883 90.506,126.951C90.508,126.952 90.51,126.952 90.512,126.953C90.943,127.165 91.392,127.338 91.854,127.469C91.935,127.475 92.015,127.479 92.096,127.482C92.611,127.562 93.133,127.592 93.654,127.57C93.983,127.595 94.314,127.6 94.644,127.584C95.493,127.482 96.32,127.245 97.094,126.881L123.467,114.201C123.662,114.107 123.853,114.005 124.039,113.895C124.096,113.86 124.153,113.825 124.209,113.789C124.339,113.709 124.467,113.626 124.592,113.539C124.653,113.495 124.713,113.45 124.773,113.404C124.885,113.321 124.995,113.235 125.103,113.146C125.172,113.089 125.24,113.032 125.307,112.973C125.401,112.889 125.494,112.802 125.584,112.713C125.648,112.651 125.712,112.587 125.774,112.523C125.871,112.421 125.965,112.316 126.057,112.209C126.106,112.154 126.154,112.099 126.201,112.043C126.293,111.928 126.382,111.811 126.467,111.691C126.515,111.627 126.563,111.563 126.609,111.498C126.726,111.326 126.836,111.149 126.939,110.968C126.97,110.912 127,110.855 127.029,110.798C127.099,110.671 127.166,110.542 127.229,110.412C127.268,110.327 127.306,110.242 127.342,110.156C127.396,110.031 127.447,109.905 127.494,109.777C127.52,109.706 127.546,109.634 127.57,109.562C127.612,109.441 127.65,109.318 127.686,109.195C127.715,109.094 127.743,108.993 127.768,108.891C127.794,108.778 127.818,108.664 127.84,108.549C127.859,108.458 127.877,108.367 127.893,108.275C127.916,108.132 127.934,107.988 127.949,107.844C127.957,107.784 127.964,107.724 127.971,107.664C127.972,107.656 127.972,107.649 127.973,107.641C127.991,107.424 128,107.206 128,106.988C128,106.988 128,21.02 128,21.016C128,20.797 127.991,20.579 127.973,20.361C127.968,20.308 127.962,20.256 127.955,20.203C127.938,20.033 127.916,19.864 127.889,19.695C127.878,19.638 127.867,19.582 127.855,19.525C127.828,19.376 127.796,19.229 127.76,19.082C127.737,18.992 127.713,18.903 127.687,18.814C127.655,18.703 127.621,18.593 127.584,18.484C127.552,18.385 127.518,18.287 127.482,18.189C127.437,18.073 127.39,17.958 127.34,17.844C127.308,17.766 127.275,17.688 127.24,17.611C127.174,17.474 127.104,17.34 127.031,17.207C126.998,17.142 126.963,17.077 126.928,17.012C126.824,16.832 126.713,16.656 126.596,16.484C126.561,16.437 126.526,16.39 126.49,16.344C126.401,16.218 126.309,16.095 126.213,15.974C126.152,15.901 126.089,15.829 126.025,15.758C125.945,15.665 125.863,15.573 125.779,15.484C125.716,15.419 125.651,15.354 125.586,15.291C125.495,15.201 125.401,15.114 125.306,15.029C125.24,14.97 125.172,14.912 125.104,14.855C124.996,14.766 124.886,14.681 124.774,14.598C124.714,14.552 124.653,14.507 124.592,14.463C124.467,14.376 124.339,14.293 124.209,14.213C124.153,14.177 124.096,14.142 124.039,14.107C123.853,13.997 123.662,13.895 123.467,13.801L97.094,1.12C96.353,0.767 95.563,0.529 94.75,0.416C94.636,0.414 94.522,0.415 94.408,0.418C94.321,0.393 94.233,0.37 94.145,0.348ZM96,36.908L96,91.094L62.947,64.002L96,36.908ZM16,45.728L32.527,64.002L16,82.275L16,45.728Z" style="fill:rgb(55,119,188);fill-rule:nonzero;"/>
</svg>
